<?xml version="1.0" encoding="utf-8" standalone="no"?>
<!DOCTYPE svg PUBLIC "-//W3C//DTD SVG 1.1//EN"
  "http://www.w3.org/Graphics/SVG/1.1/DTD/svg11.dtd">
<!-- Created with matplotlib (http://matplotlib.org/) -->
<svg height="720pt" version="1.1" viewBox="0 0 1152 720" width="1152pt" xmlns="http://www.w3.org/2000/svg" xmlns:xlink="http://www.w3.org/1999/xlink">
 <defs>
  <style type="text/css">
*{stroke-linecap:butt;stroke-linejoin:round;}
  </style>
 </defs>
 <g id="figure_1">
  <g id="patch_1">
   <path d="M 0 720 
L 1152 720 
L 1152 0 
L 0 0 
z
" style="fill:#ffffff;"/>
  </g>
  <g id="axes_1">
   <g id="patch_2">
    <path d="M 144 333.490909 
L 549.818182 333.490909 
L 549.818182 86.4 
L 144 86.4 
z
" style="fill:#ffffff;"/>
   </g>
   <g id="matplotlib.axis_1">
    <g id="xtick_1">
     <g id="line2d_1">
      <path clip-path="url(#pa16745b4fd)" d="M 158.71976 333.490909 
L 158.71976 86.4 
" style="fill:none;stroke:#b0b0b0;stroke-linecap:square;stroke-width:0.8;"/>
     </g>
     <g id="line2d_2">
      <defs>
       <path d="M 0 0 
L 0 3.5 
" id="m374bcb2d3c" style="stroke:#000000;stroke-width:0.8;"/>
      </defs>
      <g>
       <use style="stroke:#000000;stroke-width:0.8;" x="158.71976" xlink:href="#m374bcb2d3c" y="333.490909"/>
      </g>
     </g>
     <g id="text_1">
      <!-- 0 -->
      <defs>
       <path d="M 31.78125 66.40625 
Q 24.171875 66.40625 20.328125 58.90625 
Q 16.5 51.421875 16.5 36.375 
Q 16.5 21.390625 20.328125 13.890625 
Q 24.171875 6.390625 31.78125 6.390625 
Q 39.453125 6.390625 43.28125 13.890625 
Q 47.125 21.390625 47.125 36.375 
Q 47.125 51.421875 43.28125 58.90625 
Q 39.453125 66.40625 31.78125 66.40625 
z
M 31.78125 74.21875 
Q 44.046875 74.21875 50.515625 64.515625 
Q 56.984375 54.828125 56.984375 36.375 
Q 56.984375 17.96875 50.515625 8.265625 
Q 44.046875 -1.421875 31.78125 -1.421875 
Q 19.53125 -1.421875 13.0625 8.265625 
Q 6.59375 17.96875 6.59375 36.375 
Q 6.59375 54.828125 13.0625 64.515625 
Q 19.53125 74.21875 31.78125 74.21875 
z
" id="DejaVuSans-30"/>
      </defs>
      <g transform="translate(155.53851 348.089347)scale(0.1 -0.1)">
       <use xlink:href="#DejaVuSans-30"/>
      </g>
     </g>
    </g>
    <g id="xtick_2">
     <g id="line2d_3">
      <path clip-path="url(#pa16745b4fd)" d="M 233.250188 333.490909 
L 233.250188 86.4 
" style="fill:none;stroke:#b0b0b0;stroke-linecap:square;stroke-width:0.8;"/>
     </g>
     <g id="line2d_4">
      <g>
       <use style="stroke:#000000;stroke-width:0.8;" x="233.250188" xlink:href="#m374bcb2d3c" y="333.490909"/>
      </g>
     </g>
     <g id="text_2">
      <!-- 2 -->
      <defs>
       <path d="M 19.1875 8.296875 
L 53.609375 8.296875 
L 53.609375 0 
L 7.328125 0 
L 7.328125 8.296875 
Q 12.9375 14.109375 22.625 23.890625 
Q 32.328125 33.6875 34.8125 36.53125 
Q 39.546875 41.84375 41.421875 45.53125 
Q 43.3125 49.21875 43.3125 52.78125 
Q 43.3125 58.59375 39.234375 62.25 
Q 35.15625 65.921875 28.609375 65.921875 
Q 23.96875 65.921875 18.8125 64.3125 
Q 13.671875 62.703125 7.8125 59.421875 
L 7.8125 69.390625 
Q 13.765625 71.78125 18.9375 73 
Q 24.125 74.21875 28.421875 74.21875 
Q 39.75 74.21875 46.484375 68.546875 
Q 53.21875 62.890625 53.21875 53.421875 
Q 53.21875 48.921875 51.53125 44.890625 
Q 49.859375 40.875 45.40625 35.40625 
Q 44.1875 33.984375 37.640625 27.21875 
Q 31.109375 20.453125 19.1875 8.296875 
z
" id="DejaVuSans-32"/>
      </defs>
      <g transform="translate(230.068938 348.089347)scale(0.1 -0.1)">
       <use xlink:href="#DejaVuSans-32"/>
      </g>
     </g>
    </g>
    <g id="xtick_3">
     <g id="line2d_5">
      <path clip-path="url(#pa16745b4fd)" d="M 307.780616 333.490909 
L 307.780616 86.4 
" style="fill:none;stroke:#b0b0b0;stroke-linecap:square;stroke-width:0.8;"/>
     </g>
     <g id="line2d_6">
      <g>
       <use style="stroke:#000000;stroke-width:0.8;" x="307.780616" xlink:href="#m374bcb2d3c" y="333.490909"/>
      </g>
     </g>
     <g id="text_3">
      <!-- 4 -->
      <defs>
       <path d="M 37.796875 64.3125 
L 12.890625 25.390625 
L 37.796875 25.390625 
z
M 35.203125 72.90625 
L 47.609375 72.90625 
L 47.609375 25.390625 
L 58.015625 25.390625 
L 58.015625 17.1875 
L 47.609375 17.1875 
L 47.609375 0 
L 37.796875 0 
L 37.796875 17.1875 
L 4.890625 17.1875 
L 4.890625 26.703125 
z
" id="DejaVuSans-34"/>
      </defs>
      <g transform="translate(304.599366 348.089347)scale(0.1 -0.1)">
       <use xlink:href="#DejaVuSans-34"/>
      </g>
     </g>
    </g>
    <g id="xtick_4">
     <g id="line2d_7">
      <path clip-path="url(#pa16745b4fd)" d="M 382.311044 333.490909 
L 382.311044 86.4 
" style="fill:none;stroke:#b0b0b0;stroke-linecap:square;stroke-width:0.8;"/>
     </g>
     <g id="line2d_8">
      <g>
       <use style="stroke:#000000;stroke-width:0.8;" x="382.311044" xlink:href="#m374bcb2d3c" y="333.490909"/>
      </g>
     </g>
     <g id="text_4">
      <!-- 6 -->
      <defs>
       <path d="M 33.015625 40.375 
Q 26.375 40.375 22.484375 35.828125 
Q 18.609375 31.296875 18.609375 23.390625 
Q 18.609375 15.53125 22.484375 10.953125 
Q 26.375 6.390625 33.015625 6.390625 
Q 39.65625 6.390625 43.53125 10.953125 
Q 47.40625 15.53125 47.40625 23.390625 
Q 47.40625 31.296875 43.53125 35.828125 
Q 39.65625 40.375 33.015625 40.375 
z
M 52.59375 71.296875 
L 52.59375 62.3125 
Q 48.875 64.0625 45.09375 64.984375 
Q 41.3125 65.921875 37.59375 65.921875 
Q 27.828125 65.921875 22.671875 59.328125 
Q 17.53125 52.734375 16.796875 39.40625 
Q 19.671875 43.65625 24.015625 45.921875 
Q 28.375 48.1875 33.59375 48.1875 
Q 44.578125 48.1875 50.953125 41.515625 
Q 57.328125 34.859375 57.328125 23.390625 
Q 57.328125 12.15625 50.6875 5.359375 
Q 44.046875 -1.421875 33.015625 -1.421875 
Q 20.359375 -1.421875 13.671875 8.265625 
Q 6.984375 17.96875 6.984375 36.375 
Q 6.984375 53.65625 15.1875 63.9375 
Q 23.390625 74.21875 37.203125 74.21875 
Q 40.921875 74.21875 44.703125 73.484375 
Q 48.484375 72.75 52.59375 71.296875 
z
" id="DejaVuSans-36"/>
      </defs>
      <g transform="translate(379.129794 348.089347)scale(0.1 -0.1)">
       <use xlink:href="#DejaVuSans-36"/>
      </g>
     </g>
    </g>
    <g id="xtick_5">
     <g id="line2d_9">
      <path clip-path="url(#pa16745b4fd)" d="M 456.841473 333.490909 
L 456.841473 86.4 
" style="fill:none;stroke:#b0b0b0;stroke-linecap:square;stroke-width:0.8;"/>
     </g>
     <g id="line2d_10">
      <g>
       <use style="stroke:#000000;stroke-width:0.8;" x="456.841473" xlink:href="#m374bcb2d3c" y="333.490909"/>
      </g>
     </g>
     <g id="text_5">
      <!-- 8 -->
      <defs>
       <path d="M 31.78125 34.625 
Q 24.75 34.625 20.71875 30.859375 
Q 16.703125 27.09375 16.703125 20.515625 
Q 16.703125 13.921875 20.71875 10.15625 
Q 24.75 6.390625 31.78125 6.390625 
Q 38.8125 6.390625 42.859375 10.171875 
Q 46.921875 13.96875 46.921875 20.515625 
Q 46.921875 27.09375 42.890625 30.859375 
Q 38.875 34.625 31.78125 34.625 
z
M 21.921875 38.8125 
Q 15.578125 40.375 12.03125 44.71875 
Q 8.5 49.078125 8.5 55.328125 
Q 8.5 64.0625 14.71875 69.140625 
Q 20.953125 74.21875 31.78125 74.21875 
Q 42.671875 74.21875 48.875 69.140625 
Q 55.078125 64.0625 55.078125 55.328125 
Q 55.078125 49.078125 51.53125 44.71875 
Q 48 40.375 41.703125 38.8125 
Q 48.828125 37.15625 52.796875 32.3125 
Q 56.78125 27.484375 56.78125 20.515625 
Q 56.78125 9.90625 50.3125 4.234375 
Q 43.84375 -1.421875 31.78125 -1.421875 
Q 19.734375 -1.421875 13.25 4.234375 
Q 6.78125 9.90625 6.78125 20.515625 
Q 6.78125 27.484375 10.78125 32.3125 
Q 14.796875 37.15625 21.921875 38.8125 
z
M 18.3125 54.390625 
Q 18.3125 48.734375 21.84375 45.5625 
Q 25.390625 42.390625 31.78125 42.390625 
Q 38.140625 42.390625 41.71875 45.5625 
Q 45.3125 48.734375 45.3125 54.390625 
Q 45.3125 60.0625 41.71875 63.234375 
Q 38.140625 66.40625 31.78125 66.40625 
Q 25.390625 66.40625 21.84375 63.234375 
Q 18.3125 60.0625 18.3125 54.390625 
z
" id="DejaVuSans-38"/>
      </defs>
      <g transform="translate(453.660223 348.089347)scale(0.1 -0.1)">
       <use xlink:href="#DejaVuSans-38"/>
      </g>
     </g>
    </g>
    <g id="xtick_6">
     <g id="line2d_11">
      <path clip-path="url(#pa16745b4fd)" d="M 531.371901 333.490909 
L 531.371901 86.4 
" style="fill:none;stroke:#b0b0b0;stroke-linecap:square;stroke-width:0.8;"/>
     </g>
     <g id="line2d_12">
      <g>
       <use style="stroke:#000000;stroke-width:0.8;" x="531.371901" xlink:href="#m374bcb2d3c" y="333.490909"/>
      </g>
     </g>
     <g id="text_6">
      <!-- 10 -->
      <defs>
       <path d="M 12.40625 8.296875 
L 28.515625 8.296875 
L 28.515625 63.921875 
L 10.984375 60.40625 
L 10.984375 69.390625 
L 28.421875 72.90625 
L 38.28125 72.90625 
L 38.28125 8.296875 
L 54.390625 8.296875 
L 54.390625 0 
L 12.40625 0 
z
" id="DejaVuSans-31"/>
      </defs>
      <g transform="translate(525.009401 348.089347)scale(0.1 -0.1)">
       <use xlink:href="#DejaVuSans-31"/>
       <use x="63.623047" xlink:href="#DejaVuSans-30"/>
      </g>
     </g>
    </g>
    <g id="text_7">
     <!-- $\varphi$ -->
     <defs>
      <path d="M 46.390625 47.40625 
Q 43.21875 47.40625 41.796875 40.328125 
L 35.296875 6.84375 
Q 39.890625 6.84375 45.5625 11.921875 
Q 50.6875 16.453125 52.734375 27.34375 
Q 54.640625 37.5 51.5625 42.96875 
Q 49.03125 47.40625 46.390625 47.40625 
z
M 47.859375 55.078125 
Q 54.890625 55.078125 59.671875 48.640625 
Q 64.796875 41.75 62.203125 27.34375 
Q 59.8125 14.109375 51.421875 6.25 
Q 43.5 -1.171875 33.734375 -1.171875 
L 29.9375 -20.796875 
L 21 -20.796875 
L 24.8125 -1.21875 
Q 15.046875 -1.21875 10.015625 6.25 
Q 4.828125 13.875 7.421875 27.296875 
Q 10.109375 41.265625 18.21875 48.390625 
Q 24.3125 53.71875 32.5625 55.078125 
L 31 47.125 
Q 27.59375 46 24.03125 42.1875 
Q 18.65625 36.578125 16.890625 27.296875 
Q 15.046875 17.4375 18.0625 11.8125 
Q 20.84375 6.78125 26.375 6.78125 
L 32.859375 40.328125 
Q 35.75 55.078125 47.859375 55.078125 
z
" id="DejaVuSans-Oblique-3c6"/>
     </defs>
     <g transform="translate(343.609091 361.747159)scale(0.1 -0.1)">
      <use transform="translate(0 0.921875)" xlink:href="#DejaVuSans-Oblique-3c6"/>
     </g>
    </g>
   </g>
   <g id="matplotlib.axis_2">
    <g id="ytick_1">
     <g id="line2d_13">
      <path clip-path="url(#pa16745b4fd)" d="M 144 333.490909 
L 549.818182 333.490909 
" style="fill:none;stroke:#b0b0b0;stroke-linecap:square;stroke-width:0.8;"/>
     </g>
     <g id="line2d_14">
      <defs>
       <path d="M 0 0 
L -3.5 0 
" id="m5d034846d8" style="stroke:#000000;stroke-width:0.8;"/>
      </defs>
      <g>
       <use style="stroke:#000000;stroke-width:0.8;" x="144" xlink:href="#m5d034846d8" y="333.490909"/>
      </g>
     </g>
     <g id="text_8">
      <!-- 0 -->
      <g transform="translate(130.6375 337.290128)scale(0.1 -0.1)">
       <use xlink:href="#DejaVuSans-30"/>
      </g>
     </g>
    </g>
    <g id="ytick_2">
     <g id="line2d_15">
      <path clip-path="url(#pa16745b4fd)" d="M 144 281.268061 
L 549.818182 281.268061 
" style="fill:none;stroke:#b0b0b0;stroke-linecap:square;stroke-width:0.8;"/>
     </g>
     <g id="line2d_16">
      <g>
       <use style="stroke:#000000;stroke-width:0.8;" x="144" xlink:href="#m5d034846d8" y="281.268061"/>
      </g>
     </g>
     <g id="text_9">
      <!-- 10 -->
      <g transform="translate(124.275 285.067279)scale(0.1 -0.1)">
       <use xlink:href="#DejaVuSans-31"/>
       <use x="63.623047" xlink:href="#DejaVuSans-30"/>
      </g>
     </g>
    </g>
    <g id="ytick_3">
     <g id="line2d_17">
      <path clip-path="url(#pa16745b4fd)" d="M 144 229.045212 
L 549.818182 229.045212 
" style="fill:none;stroke:#b0b0b0;stroke-linecap:square;stroke-width:0.8;"/>
     </g>
     <g id="line2d_18">
      <g>
       <use style="stroke:#000000;stroke-width:0.8;" x="144" xlink:href="#m5d034846d8" y="229.045212"/>
      </g>
     </g>
     <g id="text_10">
      <!-- 20 -->
      <g transform="translate(124.275 232.844431)scale(0.1 -0.1)">
       <use xlink:href="#DejaVuSans-32"/>
       <use x="63.623047" xlink:href="#DejaVuSans-30"/>
      </g>
     </g>
    </g>
    <g id="ytick_4">
     <g id="line2d_19">
      <path clip-path="url(#pa16745b4fd)" d="M 144 176.822364 
L 549.818182 176.822364 
" style="fill:none;stroke:#b0b0b0;stroke-linecap:square;stroke-width:0.8;"/>
     </g>
     <g id="line2d_20">
      <g>
       <use style="stroke:#000000;stroke-width:0.8;" x="144" xlink:href="#m5d034846d8" y="176.822364"/>
      </g>
     </g>
     <g id="text_11">
      <!-- 30 -->
      <defs>
       <path d="M 40.578125 39.3125 
Q 47.65625 37.796875 51.625 33 
Q 55.609375 28.21875 55.609375 21.1875 
Q 55.609375 10.40625 48.1875 4.484375 
Q 40.765625 -1.421875 27.09375 -1.421875 
Q 22.515625 -1.421875 17.65625 -0.515625 
Q 12.796875 0.390625 7.625 2.203125 
L 7.625 11.71875 
Q 11.71875 9.328125 16.59375 8.109375 
Q 21.484375 6.890625 26.8125 6.890625 
Q 36.078125 6.890625 40.9375 10.546875 
Q 45.796875 14.203125 45.796875 21.1875 
Q 45.796875 27.640625 41.28125 31.265625 
Q 36.765625 34.90625 28.71875 34.90625 
L 20.21875 34.90625 
L 20.21875 43.015625 
L 29.109375 43.015625 
Q 36.375 43.015625 40.234375 45.921875 
Q 44.09375 48.828125 44.09375 54.296875 
Q 44.09375 59.90625 40.109375 62.90625 
Q 36.140625 65.921875 28.71875 65.921875 
Q 24.65625 65.921875 20.015625 65.03125 
Q 15.375 64.15625 9.8125 62.3125 
L 9.8125 71.09375 
Q 15.4375 72.65625 20.34375 73.4375 
Q 25.25 74.21875 29.59375 74.21875 
Q 40.828125 74.21875 47.359375 69.109375 
Q 53.90625 64.015625 53.90625 55.328125 
Q 53.90625 49.265625 50.4375 45.09375 
Q 46.96875 40.921875 40.578125 39.3125 
z
" id="DejaVuSans-33"/>
      </defs>
      <g transform="translate(124.275 180.621583)scale(0.1 -0.1)">
       <use xlink:href="#DejaVuSans-33"/>
       <use x="63.623047" xlink:href="#DejaVuSans-30"/>
      </g>
     </g>
    </g>
    <g id="ytick_5">
     <g id="line2d_21">
      <path clip-path="url(#pa16745b4fd)" d="M 144 124.599515 
L 549.818182 124.599515 
" style="fill:none;stroke:#b0b0b0;stroke-linecap:square;stroke-width:0.8;"/>
     </g>
     <g id="line2d_22">
      <g>
       <use style="stroke:#000000;stroke-width:0.8;" x="144" xlink:href="#m5d034846d8" y="124.599515"/>
      </g>
     </g>
     <g id="text_12">
      <!-- 40 -->
      <g transform="translate(124.275 128.398734)scale(0.1 -0.1)">
       <use xlink:href="#DejaVuSans-34"/>
       <use x="63.623047" xlink:href="#DejaVuSans-30"/>
      </g>
     </g>
    </g>
    <g id="text_13">
     <!-- Welfare gains (%) -->
     <defs>
      <path d="M 3.328125 72.90625 
L 13.28125 72.90625 
L 28.609375 11.28125 
L 43.890625 72.90625 
L 54.984375 72.90625 
L 70.3125 11.28125 
L 85.59375 72.90625 
L 95.609375 72.90625 
L 77.296875 0 
L 64.890625 0 
L 49.515625 63.28125 
L 33.984375 0 
L 21.578125 0 
z
" id="DejaVuSans-57"/>
      <path d="M 56.203125 29.59375 
L 56.203125 25.203125 
L 14.890625 25.203125 
Q 15.484375 15.921875 20.484375 11.0625 
Q 25.484375 6.203125 34.421875 6.203125 
Q 39.59375 6.203125 44.453125 7.46875 
Q 49.3125 8.734375 54.109375 11.28125 
L 54.109375 2.78125 
Q 49.265625 0.734375 44.1875 -0.34375 
Q 39.109375 -1.421875 33.890625 -1.421875 
Q 20.796875 -1.421875 13.15625 6.1875 
Q 5.515625 13.8125 5.515625 26.8125 
Q 5.515625 40.234375 12.765625 48.109375 
Q 20.015625 56 32.328125 56 
Q 43.359375 56 49.78125 48.890625 
Q 56.203125 41.796875 56.203125 29.59375 
z
M 47.21875 32.234375 
Q 47.125 39.59375 43.09375 43.984375 
Q 39.0625 48.390625 32.421875 48.390625 
Q 24.90625 48.390625 20.390625 44.140625 
Q 15.875 39.890625 15.1875 32.171875 
z
" id="DejaVuSans-65"/>
      <path d="M 9.421875 75.984375 
L 18.40625 75.984375 
L 18.40625 0 
L 9.421875 0 
z
" id="DejaVuSans-6c"/>
      <path d="M 37.109375 75.984375 
L 37.109375 68.5 
L 28.515625 68.5 
Q 23.6875 68.5 21.796875 66.546875 
Q 19.921875 64.59375 19.921875 59.515625 
L 19.921875 54.6875 
L 34.71875 54.6875 
L 34.71875 47.703125 
L 19.921875 47.703125 
L 19.921875 0 
L 10.890625 0 
L 10.890625 47.703125 
L 2.296875 47.703125 
L 2.296875 54.6875 
L 10.890625 54.6875 
L 10.890625 58.5 
Q 10.890625 67.625 15.140625 71.796875 
Q 19.390625 75.984375 28.609375 75.984375 
z
" id="DejaVuSans-66"/>
      <path d="M 34.28125 27.484375 
Q 23.390625 27.484375 19.1875 25 
Q 14.984375 22.515625 14.984375 16.5 
Q 14.984375 11.71875 18.140625 8.90625 
Q 21.296875 6.109375 26.703125 6.109375 
Q 34.1875 6.109375 38.703125 11.40625 
Q 43.21875 16.703125 43.21875 25.484375 
L 43.21875 27.484375 
z
M 52.203125 31.203125 
L 52.203125 0 
L 43.21875 0 
L 43.21875 8.296875 
Q 40.140625 3.328125 35.546875 0.953125 
Q 30.953125 -1.421875 24.3125 -1.421875 
Q 15.921875 -1.421875 10.953125 3.296875 
Q 6 8.015625 6 15.921875 
Q 6 25.140625 12.171875 29.828125 
Q 18.359375 34.515625 30.609375 34.515625 
L 43.21875 34.515625 
L 43.21875 35.40625 
Q 43.21875 41.609375 39.140625 45 
Q 35.0625 48.390625 27.6875 48.390625 
Q 23 48.390625 18.546875 47.265625 
Q 14.109375 46.140625 10.015625 43.890625 
L 10.015625 52.203125 
Q 14.9375 54.109375 19.578125 55.046875 
Q 24.21875 56 28.609375 56 
Q 40.484375 56 46.34375 49.84375 
Q 52.203125 43.703125 52.203125 31.203125 
z
" id="DejaVuSans-61"/>
      <path d="M 41.109375 46.296875 
Q 39.59375 47.171875 37.8125 47.578125 
Q 36.03125 48 33.890625 48 
Q 26.265625 48 22.1875 43.046875 
Q 18.109375 38.09375 18.109375 28.8125 
L 18.109375 0 
L 9.078125 0 
L 9.078125 54.6875 
L 18.109375 54.6875 
L 18.109375 46.1875 
Q 20.953125 51.171875 25.484375 53.578125 
Q 30.03125 56 36.53125 56 
Q 37.453125 56 38.578125 55.875 
Q 39.703125 55.765625 41.0625 55.515625 
z
" id="DejaVuSans-72"/>
      <path id="DejaVuSans-20"/>
      <path d="M 45.40625 27.984375 
Q 45.40625 37.75 41.375 43.109375 
Q 37.359375 48.484375 30.078125 48.484375 
Q 22.859375 48.484375 18.828125 43.109375 
Q 14.796875 37.75 14.796875 27.984375 
Q 14.796875 18.265625 18.828125 12.890625 
Q 22.859375 7.515625 30.078125 7.515625 
Q 37.359375 7.515625 41.375 12.890625 
Q 45.40625 18.265625 45.40625 27.984375 
z
M 54.390625 6.78125 
Q 54.390625 -7.171875 48.1875 -13.984375 
Q 42 -20.796875 29.203125 -20.796875 
Q 24.46875 -20.796875 20.265625 -20.09375 
Q 16.0625 -19.390625 12.109375 -17.921875 
L 12.109375 -9.1875 
Q 16.0625 -11.328125 19.921875 -12.34375 
Q 23.78125 -13.375 27.78125 -13.375 
Q 36.625 -13.375 41.015625 -8.765625 
Q 45.40625 -4.15625 45.40625 5.171875 
L 45.40625 9.625 
Q 42.625 4.78125 38.28125 2.390625 
Q 33.9375 0 27.875 0 
Q 17.828125 0 11.671875 7.65625 
Q 5.515625 15.328125 5.515625 27.984375 
Q 5.515625 40.671875 11.671875 48.328125 
Q 17.828125 56 27.875 56 
Q 33.9375 56 38.28125 53.609375 
Q 42.625 51.21875 45.40625 46.390625 
L 45.40625 54.6875 
L 54.390625 54.6875 
z
" id="DejaVuSans-67"/>
      <path d="M 9.421875 54.6875 
L 18.40625 54.6875 
L 18.40625 0 
L 9.421875 0 
z
M 9.421875 75.984375 
L 18.40625 75.984375 
L 18.40625 64.59375 
L 9.421875 64.59375 
z
" id="DejaVuSans-69"/>
      <path d="M 54.890625 33.015625 
L 54.890625 0 
L 45.90625 0 
L 45.90625 32.71875 
Q 45.90625 40.484375 42.875 44.328125 
Q 39.84375 48.1875 33.796875 48.1875 
Q 26.515625 48.1875 22.3125 43.546875 
Q 18.109375 38.921875 18.109375 30.90625 
L 18.109375 0 
L 9.078125 0 
L 9.078125 54.6875 
L 18.109375 54.6875 
L 18.109375 46.1875 
Q 21.34375 51.125 25.703125 53.5625 
Q 30.078125 56 35.796875 56 
Q 45.21875 56 50.046875 50.171875 
Q 54.890625 44.34375 54.890625 33.015625 
z
" id="DejaVuSans-6e"/>
      <path d="M 44.28125 53.078125 
L 44.28125 44.578125 
Q 40.484375 46.53125 36.375 47.5 
Q 32.28125 48.484375 27.875 48.484375 
Q 21.1875 48.484375 17.84375 46.4375 
Q 14.5 44.390625 14.5 40.28125 
Q 14.5 37.15625 16.890625 35.375 
Q 19.28125 33.59375 26.515625 31.984375 
L 29.59375 31.296875 
Q 39.15625 29.25 43.1875 25.515625 
Q 47.21875 21.78125 47.21875 15.09375 
Q 47.21875 7.46875 41.1875 3.015625 
Q 35.15625 -1.421875 24.609375 -1.421875 
Q 20.21875 -1.421875 15.453125 -0.5625 
Q 10.6875 0.296875 5.421875 2 
L 5.421875 11.28125 
Q 10.40625 8.6875 15.234375 7.390625 
Q 20.0625 6.109375 24.8125 6.109375 
Q 31.15625 6.109375 34.5625 8.28125 
Q 37.984375 10.453125 37.984375 14.40625 
Q 37.984375 18.0625 35.515625 20.015625 
Q 33.0625 21.96875 24.703125 23.78125 
L 21.578125 24.515625 
Q 13.234375 26.265625 9.515625 29.90625 
Q 5.8125 33.546875 5.8125 39.890625 
Q 5.8125 47.609375 11.28125 51.796875 
Q 16.75 56 26.8125 56 
Q 31.78125 56 36.171875 55.265625 
Q 40.578125 54.546875 44.28125 53.078125 
z
" id="DejaVuSans-73"/>
      <path d="M 31 75.875 
Q 24.46875 64.65625 21.28125 53.65625 
Q 18.109375 42.671875 18.109375 31.390625 
Q 18.109375 20.125 21.3125 9.0625 
Q 24.515625 -2 31 -13.1875 
L 23.1875 -13.1875 
Q 15.875 -1.703125 12.234375 9.375 
Q 8.59375 20.453125 8.59375 31.390625 
Q 8.59375 42.28125 12.203125 53.3125 
Q 15.828125 64.359375 23.1875 75.875 
z
" id="DejaVuSans-28"/>
      <path d="M 72.703125 32.078125 
Q 68.453125 32.078125 66.03125 28.46875 
Q 63.625 24.859375 63.625 18.40625 
Q 63.625 12.0625 66.03125 8.421875 
Q 68.453125 4.78125 72.703125 4.78125 
Q 76.859375 4.78125 79.265625 8.421875 
Q 81.6875 12.0625 81.6875 18.40625 
Q 81.6875 24.8125 79.265625 28.4375 
Q 76.859375 32.078125 72.703125 32.078125 
z
M 72.703125 38.28125 
Q 80.421875 38.28125 84.953125 32.90625 
Q 89.5 27.546875 89.5 18.40625 
Q 89.5 9.28125 84.9375 3.921875 
Q 80.375 -1.421875 72.703125 -1.421875 
Q 64.890625 -1.421875 60.34375 3.921875 
Q 55.8125 9.28125 55.8125 18.40625 
Q 55.8125 27.59375 60.375 32.9375 
Q 64.9375 38.28125 72.703125 38.28125 
z
M 22.3125 68.015625 
Q 18.109375 68.015625 15.6875 64.375 
Q 13.28125 60.75 13.28125 54.390625 
Q 13.28125 47.953125 15.671875 44.328125 
Q 18.0625 40.71875 22.3125 40.71875 
Q 26.5625 40.71875 28.96875 44.328125 
Q 31.390625 47.953125 31.390625 54.390625 
Q 31.390625 60.6875 28.953125 64.34375 
Q 26.515625 68.015625 22.3125 68.015625 
z
M 66.40625 74.21875 
L 74.21875 74.21875 
L 28.609375 -1.421875 
L 20.796875 -1.421875 
z
M 22.3125 74.21875 
Q 30.03125 74.21875 34.609375 68.875 
Q 39.203125 63.53125 39.203125 54.390625 
Q 39.203125 45.171875 34.640625 39.84375 
Q 30.078125 34.515625 22.3125 34.515625 
Q 14.546875 34.515625 10.03125 39.859375 
Q 5.515625 45.21875 5.515625 54.390625 
Q 5.515625 63.484375 10.046875 68.84375 
Q 14.59375 74.21875 22.3125 74.21875 
z
" id="DejaVuSans-25"/>
      <path d="M 8.015625 75.875 
L 15.828125 75.875 
Q 23.140625 64.359375 26.78125 53.3125 
Q 30.421875 42.28125 30.421875 31.390625 
Q 30.421875 20.453125 26.78125 9.375 
Q 23.140625 -1.703125 15.828125 -13.1875 
L 8.015625 -13.1875 
Q 14.5 -2 17.703125 9.0625 
Q 20.90625 20.125 20.90625 31.390625 
Q 20.90625 42.671875 17.703125 53.65625 
Q 14.5 64.65625 8.015625 75.875 
z
" id="DejaVuSans-29"/>
     </defs>
     <g transform="translate(118.195312 254.536861)rotate(-90)scale(0.1 -0.1)">
      <use xlink:href="#DejaVuSans-57"/>
      <use x="98.798828" xlink:href="#DejaVuSans-65"/>
      <use x="160.322266" xlink:href="#DejaVuSans-6c"/>
      <use x="188.105469" xlink:href="#DejaVuSans-66"/>
      <use x="223.310547" xlink:href="#DejaVuSans-61"/>
      <use x="284.589844" xlink:href="#DejaVuSans-72"/>
      <use x="325.671875" xlink:href="#DejaVuSans-65"/>
      <use x="387.195312" xlink:href="#DejaVuSans-20"/>
      <use x="418.982422" xlink:href="#DejaVuSans-67"/>
      <use x="482.458984" xlink:href="#DejaVuSans-61"/>
      <use x="543.738281" xlink:href="#DejaVuSans-69"/>
      <use x="571.521484" xlink:href="#DejaVuSans-6e"/>
      <use x="634.900391" xlink:href="#DejaVuSans-73"/>
      <use x="687" xlink:href="#DejaVuSans-20"/>
      <use x="718.787109" xlink:href="#DejaVuSans-28"/>
      <use x="757.800781" xlink:href="#DejaVuSans-25"/>
      <use x="852.820312" xlink:href="#DejaVuSans-29"/>
     </g>
    </g>
   </g>
   <g id="line2d_23">
    <path clip-path="url(#pa16745b4fd)" d="M 162.446281 97.252766 
L 166.172802 121.677093 
L 169.899324 141.438345 
L 173.625845 157.796549 
L 177.352367 171.573634 
L 181.078888 183.340807 
L 184.805409 193.510261 
L 188.531931 202.387836 
L 192.258452 210.205591 
L 195.984974 217.142949 
L 199.711495 223.340888 
L 203.438017 228.911752 
L 207.164538 233.946191 
L 210.891059 238.518165 
L 214.617581 242.688622 
L 218.344102 246.508245 
L 222.070624 250.019525 
L 225.797145 253.258355 
L 229.523666 256.255264 
L 233.250188 259.036383 
L 236.976709 261.624208 
L 240.703231 264.038214 
L 244.429752 266.295344 
L 248.156273 268.410408 
L 251.882795 270.396409 
L 255.609316 272.264809 
L 259.335838 274.025753 
L 263.062359 275.688252 
L 266.788881 277.260334 
L 270.515402 278.749181 
L 274.241923 280.161232 
L 277.968445 281.502279 
L 281.694966 282.777545 
L 285.421488 283.991754 
L 289.148009 285.149188 
L 292.87453 286.253738 
L 296.601052 287.308947 
L 300.327573 288.318049 
L 304.054095 289.284 
L 307.780616 290.209511 
L 311.507137 291.097068 
L 315.233659 291.948959 
L 318.96018 292.767292 
L 322.686702 293.55401 
L 326.413223 294.310912 
L 330.139745 295.03966 
L 333.866266 295.741796 
L 337.592787 296.418752 
L 341.319309 297.071858 
L 345.04583 297.702354 
L 348.772352 298.311392 
L 352.498873 298.90005 
L 356.225394 299.469334 
L 359.951916 300.020185 
L 363.678437 300.553484 
L 367.404959 301.070056 
L 371.13148 301.570677 
L 374.858002 302.056073 
L 378.584523 302.52693 
L 382.311044 302.98389 
L 386.037566 303.427559 
L 389.764087 303.85851 
L 393.490609 304.277281 
L 397.21713 304.684381 
L 400.943651 305.080292 
L 404.670173 305.465469 
L 408.396694 305.840342 
L 412.123216 306.205319 
L 415.849737 306.560787 
L 419.576258 306.907113 
L 423.30278 307.244645 
L 427.029301 307.573714 
L 430.755823 307.894634 
L 434.482344 308.207704 
L 438.208866 308.513208 
L 441.935387 308.811418 
L 445.661908 309.102592 
L 449.38843 309.386976 
L 453.114951 309.664804 
L 456.841473 309.936301 
L 460.567994 310.20168 
L 464.294515 310.461147 
L 468.021037 310.714896 
L 471.747558 310.963114 
L 475.47408 311.205981 
L 479.200601 311.443667 
L 482.927122 311.676337 
L 486.653644 311.904147 
L 490.380165 312.127249 
L 494.106687 312.345786 
L 497.833208 312.559898 
L 501.55973 312.769718 
L 505.286251 312.975373 
L 509.012772 313.176985 
L 512.739294 313.374674 
L 516.465815 313.568553 
L 520.192337 313.75873 
L 523.918858 313.945311 
L 527.645379 314.128396 
L 531.371901 314.308084 
" style="fill:none;stroke:#1f77b4;stroke-linecap:square;stroke-width:1.5;"/>
   </g>
   <g id="patch_3">
    <path d="M 144 333.490909 
L 144 86.4 
" style="fill:none;stroke:#000000;stroke-linecap:square;stroke-linejoin:miter;stroke-width:0.8;"/>
   </g>
   <g id="patch_4">
    <path d="M 549.818182 333.490909 
L 549.818182 86.4 
" style="fill:none;stroke:#000000;stroke-linecap:square;stroke-linejoin:miter;stroke-width:0.8;"/>
   </g>
   <g id="patch_5">
    <path d="M 144 333.490909 
L 549.818182 333.490909 
" style="fill:none;stroke:#000000;stroke-linecap:square;stroke-linejoin:miter;stroke-width:0.8;"/>
   </g>
   <g id="patch_6">
    <path d="M 144 86.4 
L 549.818182 86.4 
" style="fill:none;stroke:#000000;stroke-linecap:square;stroke-linejoin:miter;stroke-width:0.8;"/>
   </g>
   <g id="text_14">
    <!-- CES-DS, Elastic Labor -->
    <defs>
     <path d="M 64.40625 67.28125 
L 64.40625 56.890625 
Q 59.421875 61.53125 53.78125 63.8125 
Q 48.140625 66.109375 41.796875 66.109375 
Q 29.296875 66.109375 22.65625 58.46875 
Q 16.015625 50.828125 16.015625 36.375 
Q 16.015625 21.96875 22.65625 14.328125 
Q 29.296875 6.6875 41.796875 6.6875 
Q 48.140625 6.6875 53.78125 8.984375 
Q 59.421875 11.28125 64.40625 15.921875 
L 64.40625 5.609375 
Q 59.234375 2.09375 53.4375 0.328125 
Q 47.65625 -1.421875 41.21875 -1.421875 
Q 24.65625 -1.421875 15.125 8.703125 
Q 5.609375 18.84375 5.609375 36.375 
Q 5.609375 53.953125 15.125 64.078125 
Q 24.65625 74.21875 41.21875 74.21875 
Q 47.75 74.21875 53.53125 72.484375 
Q 59.328125 70.75 64.40625 67.28125 
z
" id="DejaVuSans-43"/>
     <path d="M 9.8125 72.90625 
L 55.90625 72.90625 
L 55.90625 64.59375 
L 19.671875 64.59375 
L 19.671875 43.015625 
L 54.390625 43.015625 
L 54.390625 34.71875 
L 19.671875 34.71875 
L 19.671875 8.296875 
L 56.78125 8.296875 
L 56.78125 0 
L 9.8125 0 
z
" id="DejaVuSans-45"/>
     <path d="M 53.515625 70.515625 
L 53.515625 60.890625 
Q 47.90625 63.578125 42.921875 64.890625 
Q 37.9375 66.21875 33.296875 66.21875 
Q 25.25 66.21875 20.875 63.09375 
Q 16.5 59.96875 16.5 54.203125 
Q 16.5 49.359375 19.40625 46.890625 
Q 22.3125 44.4375 30.421875 42.921875 
L 36.375 41.703125 
Q 47.40625 39.59375 52.65625 34.296875 
Q 57.90625 29 57.90625 20.125 
Q 57.90625 9.515625 50.796875 4.046875 
Q 43.703125 -1.421875 29.984375 -1.421875 
Q 24.8125 -1.421875 18.96875 -0.25 
Q 13.140625 0.921875 6.890625 3.21875 
L 6.890625 13.375 
Q 12.890625 10.015625 18.65625 8.296875 
Q 24.421875 6.59375 29.984375 6.59375 
Q 38.421875 6.59375 43.015625 9.90625 
Q 47.609375 13.234375 47.609375 19.390625 
Q 47.609375 24.75 44.3125 27.78125 
Q 41.015625 30.8125 33.5 32.328125 
L 27.484375 33.5 
Q 16.453125 35.6875 11.515625 40.375 
Q 6.59375 45.0625 6.59375 53.421875 
Q 6.59375 63.09375 13.40625 68.65625 
Q 20.21875 74.21875 32.171875 74.21875 
Q 37.3125 74.21875 42.625 73.28125 
Q 47.953125 72.359375 53.515625 70.515625 
z
" id="DejaVuSans-53"/>
     <path d="M 4.890625 31.390625 
L 31.203125 31.390625 
L 31.203125 23.390625 
L 4.890625 23.390625 
z
" id="DejaVuSans-2d"/>
     <path d="M 19.671875 64.796875 
L 19.671875 8.109375 
L 31.59375 8.109375 
Q 46.6875 8.109375 53.6875 14.9375 
Q 60.6875 21.78125 60.6875 36.53125 
Q 60.6875 51.171875 53.6875 57.984375 
Q 46.6875 64.796875 31.59375 64.796875 
z
M 9.8125 72.90625 
L 30.078125 72.90625 
Q 51.265625 72.90625 61.171875 64.09375 
Q 71.09375 55.28125 71.09375 36.53125 
Q 71.09375 17.671875 61.125 8.828125 
Q 51.171875 0 30.078125 0 
L 9.8125 0 
z
" id="DejaVuSans-44"/>
     <path d="M 11.71875 12.40625 
L 22.015625 12.40625 
L 22.015625 4 
L 14.015625 -11.625 
L 7.71875 -11.625 
L 11.71875 4 
z
" id="DejaVuSans-2c"/>
     <path d="M 18.3125 70.21875 
L 18.3125 54.6875 
L 36.8125 54.6875 
L 36.8125 47.703125 
L 18.3125 47.703125 
L 18.3125 18.015625 
Q 18.3125 11.328125 20.140625 9.421875 
Q 21.96875 7.515625 27.59375 7.515625 
L 36.8125 7.515625 
L 36.8125 0 
L 27.59375 0 
Q 17.1875 0 13.234375 3.875 
Q 9.28125 7.765625 9.28125 18.015625 
L 9.28125 47.703125 
L 2.6875 47.703125 
L 2.6875 54.6875 
L 9.28125 54.6875 
L 9.28125 70.21875 
z
" id="DejaVuSans-74"/>
     <path d="M 48.78125 52.59375 
L 48.78125 44.1875 
Q 44.96875 46.296875 41.140625 47.34375 
Q 37.3125 48.390625 33.40625 48.390625 
Q 24.65625 48.390625 19.8125 42.84375 
Q 14.984375 37.3125 14.984375 27.296875 
Q 14.984375 17.28125 19.8125 11.734375 
Q 24.65625 6.203125 33.40625 6.203125 
Q 37.3125 6.203125 41.140625 7.25 
Q 44.96875 8.296875 48.78125 10.40625 
L 48.78125 2.09375 
Q 45.015625 0.34375 40.984375 -0.53125 
Q 36.96875 -1.421875 32.421875 -1.421875 
Q 20.0625 -1.421875 12.78125 6.34375 
Q 5.515625 14.109375 5.515625 27.296875 
Q 5.515625 40.671875 12.859375 48.328125 
Q 20.21875 56 33.015625 56 
Q 37.15625 56 41.109375 55.140625 
Q 45.0625 54.296875 48.78125 52.59375 
z
" id="DejaVuSans-63"/>
     <path d="M 9.8125 72.90625 
L 19.671875 72.90625 
L 19.671875 8.296875 
L 55.171875 8.296875 
L 55.171875 0 
L 9.8125 0 
z
" id="DejaVuSans-4c"/>
     <path d="M 48.6875 27.296875 
Q 48.6875 37.203125 44.609375 42.84375 
Q 40.53125 48.484375 33.40625 48.484375 
Q 26.265625 48.484375 22.1875 42.84375 
Q 18.109375 37.203125 18.109375 27.296875 
Q 18.109375 17.390625 22.1875 11.75 
Q 26.265625 6.109375 33.40625 6.109375 
Q 40.53125 6.109375 44.609375 11.75 
Q 48.6875 17.390625 48.6875 27.296875 
z
M 18.109375 46.390625 
Q 20.953125 51.265625 25.265625 53.625 
Q 29.59375 56 35.59375 56 
Q 45.5625 56 51.78125 48.09375 
Q 58.015625 40.1875 58.015625 27.296875 
Q 58.015625 14.40625 51.78125 6.484375 
Q 45.5625 -1.421875 35.59375 -1.421875 
Q 29.59375 -1.421875 25.265625 0.953125 
Q 20.953125 3.328125 18.109375 8.203125 
L 18.109375 0 
L 9.078125 0 
L 9.078125 75.984375 
L 18.109375 75.984375 
z
" id="DejaVuSans-62"/>
     <path d="M 30.609375 48.390625 
Q 23.390625 48.390625 19.1875 42.75 
Q 14.984375 37.109375 14.984375 27.296875 
Q 14.984375 17.484375 19.15625 11.84375 
Q 23.34375 6.203125 30.609375 6.203125 
Q 37.796875 6.203125 41.984375 11.859375 
Q 46.1875 17.53125 46.1875 27.296875 
Q 46.1875 37.015625 41.984375 42.703125 
Q 37.796875 48.390625 30.609375 48.390625 
z
M 30.609375 56 
Q 42.328125 56 49.015625 48.375 
Q 55.71875 40.765625 55.71875 27.296875 
Q 55.71875 13.875 49.015625 6.21875 
Q 42.328125 -1.421875 30.609375 -1.421875 
Q 18.84375 -1.421875 12.171875 6.21875 
Q 5.515625 13.875 5.515625 27.296875 
Q 5.515625 40.765625 12.171875 48.375 
Q 18.84375 56 30.609375 56 
z
" id="DejaVuSans-6f"/>
    </defs>
    <g transform="translate(282.259091 80.4)scale(0.12 -0.12)">
     <use xlink:href="#DejaVuSans-43"/>
     <use x="69.824219" xlink:href="#DejaVuSans-45"/>
     <use x="133.007812" xlink:href="#DejaVuSans-53"/>
     <use x="196.484375" xlink:href="#DejaVuSans-2d"/>
     <use x="232.568359" xlink:href="#DejaVuSans-44"/>
     <use x="309.570312" xlink:href="#DejaVuSans-53"/>
     <use x="373.046875" xlink:href="#DejaVuSans-2c"/>
     <use x="404.833984" xlink:href="#DejaVuSans-20"/>
     <use x="436.621094" xlink:href="#DejaVuSans-45"/>
     <use x="499.804688" xlink:href="#DejaVuSans-6c"/>
     <use x="527.587891" xlink:href="#DejaVuSans-61"/>
     <use x="588.867188" xlink:href="#DejaVuSans-73"/>
     <use x="640.966797" xlink:href="#DejaVuSans-74"/>
     <use x="680.175781" xlink:href="#DejaVuSans-69"/>
     <use x="707.958984" xlink:href="#DejaVuSans-63"/>
     <use x="762.939453" xlink:href="#DejaVuSans-20"/>
     <use x="794.726562" xlink:href="#DejaVuSans-4c"/>
     <use x="850.439453" xlink:href="#DejaVuSans-61"/>
     <use x="911.71875" xlink:href="#DejaVuSans-62"/>
     <use x="975.195312" xlink:href="#DejaVuSans-6f"/>
     <use x="1036.376953" xlink:href="#DejaVuSans-72"/>
    </g>
   </g>
  </g>
  <g id="axes_2">
   <g id="patch_7">
    <path d="M 630.981818 333.490909 
L 1036.8 333.490909 
L 1036.8 86.4 
L 630.981818 86.4 
z
" style="fill:#ffffff;"/>
   </g>
   <g id="matplotlib.axis_3">
    <g id="xtick_7">
     <g id="line2d_24">
      <path clip-path="url(#p20a9fdee99)" d="M 690.419835 333.490909 
L 690.419835 86.4 
" style="fill:none;stroke:#b0b0b0;stroke-linecap:square;stroke-width:0.8;"/>
     </g>
     <g id="line2d_25">
      <g>
       <use style="stroke:#000000;stroke-width:0.8;" x="690.419835" xlink:href="#m374bcb2d3c" y="333.490909"/>
      </g>
     </g>
     <g id="text_15">
      <!-- 1.2 -->
      <defs>
       <path d="M 10.6875 12.40625 
L 21 12.40625 
L 21 0 
L 10.6875 0 
z
" id="DejaVuSans-2e"/>
      </defs>
      <g transform="translate(682.468272 348.089347)scale(0.1 -0.1)">
       <use xlink:href="#DejaVuSans-31"/>
       <use x="63.623047" xlink:href="#DejaVuSans-2e"/>
       <use x="95.410156" xlink:href="#DejaVuSans-32"/>
      </g>
     </g>
    </g>
    <g id="xtick_8">
     <g id="line2d_26">
      <path clip-path="url(#p20a9fdee99)" d="M 772.403306 333.490909 
L 772.403306 86.4 
" style="fill:none;stroke:#b0b0b0;stroke-linecap:square;stroke-width:0.8;"/>
     </g>
     <g id="line2d_27">
      <g>
       <use style="stroke:#000000;stroke-width:0.8;" x="772.403306" xlink:href="#m374bcb2d3c" y="333.490909"/>
      </g>
     </g>
     <g id="text_16">
      <!-- 1.4 -->
      <g transform="translate(764.451743 348.089347)scale(0.1 -0.1)">
       <use xlink:href="#DejaVuSans-31"/>
       <use x="63.623047" xlink:href="#DejaVuSans-2e"/>
       <use x="95.410156" xlink:href="#DejaVuSans-34"/>
      </g>
     </g>
    </g>
    <g id="xtick_9">
     <g id="line2d_28">
      <path clip-path="url(#p20a9fdee99)" d="M 854.386777 333.490909 
L 854.386777 86.4 
" style="fill:none;stroke:#b0b0b0;stroke-linecap:square;stroke-width:0.8;"/>
     </g>
     <g id="line2d_29">
      <g>
       <use style="stroke:#000000;stroke-width:0.8;" x="854.386777" xlink:href="#m374bcb2d3c" y="333.490909"/>
      </g>
     </g>
     <g id="text_17">
      <!-- 1.6 -->
      <g transform="translate(846.435214 348.089347)scale(0.1 -0.1)">
       <use xlink:href="#DejaVuSans-31"/>
       <use x="63.623047" xlink:href="#DejaVuSans-2e"/>
       <use x="95.410156" xlink:href="#DejaVuSans-36"/>
      </g>
     </g>
    </g>
    <g id="xtick_10">
     <g id="line2d_30">
      <path clip-path="url(#p20a9fdee99)" d="M 936.370248 333.490909 
L 936.370248 86.4 
" style="fill:none;stroke:#b0b0b0;stroke-linecap:square;stroke-width:0.8;"/>
     </g>
     <g id="line2d_31">
      <g>
       <use style="stroke:#000000;stroke-width:0.8;" x="936.370248" xlink:href="#m374bcb2d3c" y="333.490909"/>
      </g>
     </g>
     <g id="text_18">
      <!-- 1.8 -->
      <g transform="translate(928.418685 348.089347)scale(0.1 -0.1)">
       <use xlink:href="#DejaVuSans-31"/>
       <use x="63.623047" xlink:href="#DejaVuSans-2e"/>
       <use x="95.410156" xlink:href="#DejaVuSans-38"/>
      </g>
     </g>
    </g>
    <g id="xtick_11">
     <g id="line2d_32">
      <path clip-path="url(#p20a9fdee99)" d="M 1018.353719 333.490909 
L 1018.353719 86.4 
" style="fill:none;stroke:#b0b0b0;stroke-linecap:square;stroke-width:0.8;"/>
     </g>
     <g id="line2d_33">
      <g>
       <use style="stroke:#000000;stroke-width:0.8;" x="1018.353719" xlink:href="#m374bcb2d3c" y="333.490909"/>
      </g>
     </g>
     <g id="text_19">
      <!-- 2.0 -->
      <g transform="translate(1010.402157 348.089347)scale(0.1 -0.1)">
       <use xlink:href="#DejaVuSans-32"/>
       <use x="63.623047" xlink:href="#DejaVuSans-2e"/>
       <use x="95.410156" xlink:href="#DejaVuSans-30"/>
      </g>
     </g>
    </g>
    <g id="text_20">
     <!-- $\mu$ -->
     <defs>
      <path d="M -1.3125 -20.796875 
L 13.375 54.6875 
L 22.40625 54.6875 
L 15.765625 20.65625 
Q 15.578125 19.625 15.421875 18.359375 
Q 15.28125 17.09375 15.28125 15.828125 
Q 15.28125 11.28125 18.140625 8.828125 
Q 21 6.390625 26.3125 6.390625 
Q 33.546875 6.390625 37.984375 10.484375 
Q 42.4375 14.59375 44 22.796875 
L 50.203125 54.6875 
L 59.1875 54.6875 
L 51.03125 12.640625 
Q 50.828125 11.71875 50.75 11.03125 
Q 50.6875 10.359375 50.6875 9.8125 
Q 50.6875 8.296875 51.296875 7.59375 
Q 51.90625 6.890625 53.21875 6.890625 
Q 53.71875 6.890625 54.5625 7.125 
Q 55.421875 7.375 56.984375 8.015625 
L 55.609375 0.78125 
Q 53.46875 -0.296875 51.515625 -0.859375 
Q 49.5625 -1.421875 47.703125 -1.421875 
Q 44.484375 -1.421875 42.65625 0.625 
Q 40.828125 2.6875 40.828125 6.296875 
Q 38.09375 2.390625 34.296875 0.484375 
Q 30.515625 -1.421875 25.390625 -1.421875 
Q 20.84375 -1.421875 17.453125 0.671875 
Q 14.0625 2.78125 12.984375 6.203125 
L 7.71875 -20.796875 
z
" id="DejaVuSans-Oblique-3bc"/>
     </defs>
     <g transform="translate(830.690909 361.747159)scale(0.1 -0.1)">
      <use transform="translate(0 0.3125)" xlink:href="#DejaVuSans-Oblique-3bc"/>
     </g>
    </g>
   </g>
   <g id="matplotlib.axis_4">
    <g id="ytick_6">
     <g id="line2d_34">
      <path clip-path="url(#p20a9fdee99)" d="M 630.981818 333.490909 
L 1036.8 333.490909 
" style="fill:none;stroke:#b0b0b0;stroke-linecap:square;stroke-width:0.8;"/>
     </g>
     <g id="line2d_35">
      <g>
       <use style="stroke:#000000;stroke-width:0.8;" x="630.981818" xlink:href="#m5d034846d8" y="333.490909"/>
      </g>
     </g>
     <g id="text_21">
      <!-- 0 -->
      <g transform="translate(617.619318 337.290128)scale(0.1 -0.1)">
       <use xlink:href="#DejaVuSans-30"/>
      </g>
     </g>
    </g>
    <g id="ytick_7">
     <g id="line2d_36">
      <path clip-path="url(#p20a9fdee99)" d="M 630.981818 289.586012 
L 1036.8 289.586012 
" style="fill:none;stroke:#b0b0b0;stroke-linecap:square;stroke-width:0.8;"/>
     </g>
     <g id="line2d_37">
      <g>
       <use style="stroke:#000000;stroke-width:0.8;" x="630.981818" xlink:href="#m5d034846d8" y="289.586012"/>
      </g>
     </g>
     <g id="text_22">
      <!-- 20 -->
      <g transform="translate(611.256818 293.385231)scale(0.1 -0.1)">
       <use xlink:href="#DejaVuSans-32"/>
       <use x="63.623047" xlink:href="#DejaVuSans-30"/>
      </g>
     </g>
    </g>
    <g id="ytick_8">
     <g id="line2d_38">
      <path clip-path="url(#p20a9fdee99)" d="M 630.981818 245.681116 
L 1036.8 245.681116 
" style="fill:none;stroke:#b0b0b0;stroke-linecap:square;stroke-width:0.8;"/>
     </g>
     <g id="line2d_39">
      <g>
       <use style="stroke:#000000;stroke-width:0.8;" x="630.981818" xlink:href="#m5d034846d8" y="245.681116"/>
      </g>
     </g>
     <g id="text_23">
      <!-- 40 -->
      <g transform="translate(611.256818 249.480334)scale(0.1 -0.1)">
       <use xlink:href="#DejaVuSans-34"/>
       <use x="63.623047" xlink:href="#DejaVuSans-30"/>
      </g>
     </g>
    </g>
    <g id="ytick_9">
     <g id="line2d_40">
      <path clip-path="url(#p20a9fdee99)" d="M 630.981818 201.776219 
L 1036.8 201.776219 
" style="fill:none;stroke:#b0b0b0;stroke-linecap:square;stroke-width:0.8;"/>
     </g>
     <g id="line2d_41">
      <g>
       <use style="stroke:#000000;stroke-width:0.8;" x="630.981818" xlink:href="#m5d034846d8" y="201.776219"/>
      </g>
     </g>
     <g id="text_24">
      <!-- 60 -->
      <g transform="translate(611.256818 205.575438)scale(0.1 -0.1)">
       <use xlink:href="#DejaVuSans-36"/>
       <use x="63.623047" xlink:href="#DejaVuSans-30"/>
      </g>
     </g>
    </g>
    <g id="ytick_10">
     <g id="line2d_42">
      <path clip-path="url(#p20a9fdee99)" d="M 630.981818 157.871322 
L 1036.8 157.871322 
" style="fill:none;stroke:#b0b0b0;stroke-linecap:square;stroke-width:0.8;"/>
     </g>
     <g id="line2d_43">
      <g>
       <use style="stroke:#000000;stroke-width:0.8;" x="630.981818" xlink:href="#m5d034846d8" y="157.871322"/>
      </g>
     </g>
     <g id="text_25">
      <!-- 80 -->
      <g transform="translate(611.256818 161.670541)scale(0.1 -0.1)">
       <use xlink:href="#DejaVuSans-38"/>
       <use x="63.623047" xlink:href="#DejaVuSans-30"/>
      </g>
     </g>
    </g>
    <g id="ytick_11">
     <g id="line2d_44">
      <path clip-path="url(#p20a9fdee99)" d="M 630.981818 113.966425 
L 1036.8 113.966425 
" style="fill:none;stroke:#b0b0b0;stroke-linecap:square;stroke-width:0.8;"/>
     </g>
     <g id="line2d_45">
      <g>
       <use style="stroke:#000000;stroke-width:0.8;" x="630.981818" xlink:href="#m5d034846d8" y="113.966425"/>
      </g>
     </g>
     <g id="text_26">
      <!-- 100 -->
      <g transform="translate(604.894318 117.765644)scale(0.1 -0.1)">
       <use xlink:href="#DejaVuSans-31"/>
       <use x="63.623047" xlink:href="#DejaVuSans-30"/>
       <use x="127.246094" xlink:href="#DejaVuSans-30"/>
      </g>
     </g>
    </g>
    <g id="text_27">
     <!-- Welfare gains (%) -->
     <g transform="translate(598.814631 254.536861)rotate(-90)scale(0.1 -0.1)">
      <use xlink:href="#DejaVuSans-57"/>
      <use x="98.798828" xlink:href="#DejaVuSans-65"/>
      <use x="160.322266" xlink:href="#DejaVuSans-6c"/>
      <use x="188.105469" xlink:href="#DejaVuSans-66"/>
      <use x="223.310547" xlink:href="#DejaVuSans-61"/>
      <use x="284.589844" xlink:href="#DejaVuSans-72"/>
      <use x="325.671875" xlink:href="#DejaVuSans-65"/>
      <use x="387.195312" xlink:href="#DejaVuSans-20"/>
      <use x="418.982422" xlink:href="#DejaVuSans-67"/>
      <use x="482.458984" xlink:href="#DejaVuSans-61"/>
      <use x="543.738281" xlink:href="#DejaVuSans-69"/>
      <use x="571.521484" xlink:href="#DejaVuSans-6e"/>
      <use x="634.900391" xlink:href="#DejaVuSans-73"/>
      <use x="687" xlink:href="#DejaVuSans-20"/>
      <use x="718.787109" xlink:href="#DejaVuSans-28"/>
      <use x="757.800781" xlink:href="#DejaVuSans-25"/>
      <use x="852.820312" xlink:href="#DejaVuSans-29"/>
     </g>
    </g>
   </g>
   <g id="line2d_46">
    <path clip-path="url(#p20a9fdee99)" d="M 649.428099 309.764118 
L 653.154621 307.608716 
L 656.881142 305.453384 
L 660.607663 303.298106 
L 664.334185 301.142873 
L 668.060706 298.987678 
L 671.787228 296.832514 
L 675.513749 294.677377 
L 679.24027 292.522265 
L 682.966792 290.367176 
L 686.693313 288.21211 
L 690.419835 286.057068 
L 694.146356 283.902049 
L 697.872878 281.747057 
L 701.599399 279.592093 
L 705.32592 277.437161 
L 709.052442 275.282263 
L 712.778963 273.127402 
L 716.505485 270.972584 
L 720.232006 268.817812 
L 723.958527 266.66309 
L 727.685049 264.508423 
L 731.41157 262.353816 
L 735.138092 260.199273 
L 738.864613 258.044799 
L 742.591134 255.8904 
L 746.317656 253.736081 
L 750.044177 251.581847 
L 753.770699 249.427703 
L 757.49722 247.273655 
L 761.223742 245.119709 
L 764.950263 242.965869 
L 768.676784 240.812141 
L 772.403306 238.65853 
L 776.129827 236.505043 
L 779.856349 234.351685 
L 783.58287 232.198461 
L 787.309391 230.045376 
L 791.035913 227.892437 
L 794.762434 225.739648 
L 798.488956 223.587015 
L 802.215477 221.434544 
L 805.941998 219.28224 
L 809.66852 217.130109 
L 813.395041 214.978155 
L 817.121563 212.826385 
L 820.848084 210.674803 
L 824.574606 208.523414 
L 828.301127 206.372225 
L 832.027648 204.22124 
L 835.75417 202.070465 
L 839.480691 199.919904 
L 843.207213 197.769562 
L 846.933734 195.619446 
L 850.660255 193.469559 
L 854.386777 191.319907 
L 858.113298 189.170495 
L 861.83982 187.021327 
L 865.566341 184.872409 
L 869.292863 182.723745 
L 873.019384 180.575341 
L 876.745905 178.4272 
L 880.472427 176.279328 
L 884.198948 174.131729 
L 887.92547 171.984408 
L 891.651991 169.83737 
L 895.378512 167.690619 
L 899.105034 165.544159 
L 902.831555 163.397996 
L 906.558077 161.252132 
L 910.284598 159.106574 
L 914.011119 156.961325 
L 917.737641 154.81639 
L 921.464162 152.671772 
L 925.190684 150.527476 
L 928.917205 148.383507 
L 932.643727 146.239868 
L 936.370248 144.096564 
L 940.096769 141.953598 
L 943.823291 139.810975 
L 947.549812 137.668699 
L 951.276334 135.526773 
L 955.002855 133.385202 
L 958.729376 131.243989 
L 962.455898 129.103138 
L 966.182419 126.962654 
L 969.908941 124.82254 
L 973.635462 122.682799 
L 977.361983 120.543436 
L 981.088505 118.404455 
L 984.815026 116.265857 
L 988.541548 114.127649 
L 992.268069 111.989832 
L 995.994591 109.852411 
L 999.721112 107.715389 
L 1003.447633 105.57877 
L 1007.174155 103.442556 
L 1010.900676 101.306752 
L 1014.627198 99.171361 
L 1018.353719 97.036387 
" style="fill:none;stroke:#1f77b4;stroke-linecap:square;stroke-width:1.5;"/>
   </g>
   <g id="patch_8">
    <path d="M 630.981818 333.490909 
L 630.981818 86.4 
" style="fill:none;stroke:#000000;stroke-linecap:square;stroke-linejoin:miter;stroke-width:0.8;"/>
   </g>
   <g id="patch_9">
    <path d="M 1036.8 333.490909 
L 1036.8 86.4 
" style="fill:none;stroke:#000000;stroke-linecap:square;stroke-linejoin:miter;stroke-width:0.8;"/>
   </g>
   <g id="patch_10">
    <path d="M 630.981818 333.490909 
L 1036.8 333.490909 
" style="fill:none;stroke:#000000;stroke-linecap:square;stroke-linejoin:miter;stroke-width:0.8;"/>
   </g>
   <g id="patch_11">
    <path d="M 630.981818 86.4 
L 1036.8 86.4 
" style="fill:none;stroke:#000000;stroke-linecap:square;stroke-linejoin:miter;stroke-width:0.8;"/>
   </g>
   <g id="text_28">
    <!-- CES-DS, Elastic Labor -->
    <g transform="translate(769.240909 80.4)scale(0.12 -0.12)">
     <use xlink:href="#DejaVuSans-43"/>
     <use x="69.824219" xlink:href="#DejaVuSans-45"/>
     <use x="133.007812" xlink:href="#DejaVuSans-53"/>
     <use x="196.484375" xlink:href="#DejaVuSans-2d"/>
     <use x="232.568359" xlink:href="#DejaVuSans-44"/>
     <use x="309.570312" xlink:href="#DejaVuSans-53"/>
     <use x="373.046875" xlink:href="#DejaVuSans-2c"/>
     <use x="404.833984" xlink:href="#DejaVuSans-20"/>
     <use x="436.621094" xlink:href="#DejaVuSans-45"/>
     <use x="499.804688" xlink:href="#DejaVuSans-6c"/>
     <use x="527.587891" xlink:href="#DejaVuSans-61"/>
     <use x="588.867188" xlink:href="#DejaVuSans-73"/>
     <use x="640.966797" xlink:href="#DejaVuSans-74"/>
     <use x="680.175781" xlink:href="#DejaVuSans-69"/>
     <use x="707.958984" xlink:href="#DejaVuSans-63"/>
     <use x="762.939453" xlink:href="#DejaVuSans-20"/>
     <use x="794.726562" xlink:href="#DejaVuSans-4c"/>
     <use x="850.439453" xlink:href="#DejaVuSans-61"/>
     <use x="911.71875" xlink:href="#DejaVuSans-62"/>
     <use x="975.195312" xlink:href="#DejaVuSans-6f"/>
     <use x="1036.376953" xlink:href="#DejaVuSans-72"/>
    </g>
   </g>
  </g>
  <g id="axes_3">
   <g id="patch_12">
    <path d="M 144 630 
L 549.818182 630 
L 549.818182 382.909091 
L 144 382.909091 
z
" style="fill:#ffffff;"/>
   </g>
   <g id="matplotlib.axis_5">
    <g id="xtick_12">
     <g id="line2d_47">
      <path clip-path="url(#p8c9d22d564)" d="M 162.446281 630 
L 162.446281 382.909091 
" style="fill:none;stroke:#b0b0b0;stroke-linecap:square;stroke-width:0.8;"/>
     </g>
     <g id="line2d_48">
      <g>
       <use style="stroke:#000000;stroke-width:0.8;" x="162.446281" xlink:href="#m374bcb2d3c" y="630"/>
      </g>
     </g>
     <g id="text_29">
      <!-- 0.3 -->
      <g transform="translate(154.494718 644.598437)scale(0.1 -0.1)">
       <use xlink:href="#DejaVuSans-30"/>
       <use x="63.623047" xlink:href="#DejaVuSans-2e"/>
       <use x="95.410156" xlink:href="#DejaVuSans-33"/>
      </g>
     </g>
    </g>
    <g id="xtick_13">
     <g id="line2d_49">
      <path clip-path="url(#p8c9d22d564)" d="M 223.933884 630 
L 223.933884 382.909091 
" style="fill:none;stroke:#b0b0b0;stroke-linecap:square;stroke-width:0.8;"/>
     </g>
     <g id="line2d_50">
      <g>
       <use style="stroke:#000000;stroke-width:0.8;" x="223.933884" xlink:href="#m374bcb2d3c" y="630"/>
      </g>
     </g>
     <g id="text_30">
      <!-- 0.4 -->
      <g transform="translate(215.982322 644.598437)scale(0.1 -0.1)">
       <use xlink:href="#DejaVuSans-30"/>
       <use x="63.623047" xlink:href="#DejaVuSans-2e"/>
       <use x="95.410156" xlink:href="#DejaVuSans-34"/>
      </g>
     </g>
    </g>
    <g id="xtick_14">
     <g id="line2d_51">
      <path clip-path="url(#p8c9d22d564)" d="M 285.421488 630 
L 285.421488 382.909091 
" style="fill:none;stroke:#b0b0b0;stroke-linecap:square;stroke-width:0.8;"/>
     </g>
     <g id="line2d_52">
      <g>
       <use style="stroke:#000000;stroke-width:0.8;" x="285.421488" xlink:href="#m374bcb2d3c" y="630"/>
      </g>
     </g>
     <g id="text_31">
      <!-- 0.5 -->
      <defs>
       <path d="M 10.796875 72.90625 
L 49.515625 72.90625 
L 49.515625 64.59375 
L 19.828125 64.59375 
L 19.828125 46.734375 
Q 21.96875 47.46875 24.109375 47.828125 
Q 26.265625 48.1875 28.421875 48.1875 
Q 40.625 48.1875 47.75 41.5 
Q 54.890625 34.8125 54.890625 23.390625 
Q 54.890625 11.625 47.5625 5.09375 
Q 40.234375 -1.421875 26.90625 -1.421875 
Q 22.3125 -1.421875 17.546875 -0.640625 
Q 12.796875 0.140625 7.71875 1.703125 
L 7.71875 11.625 
Q 12.109375 9.234375 16.796875 8.0625 
Q 21.484375 6.890625 26.703125 6.890625 
Q 35.15625 6.890625 40.078125 11.328125 
Q 45.015625 15.765625 45.015625 23.390625 
Q 45.015625 31 40.078125 35.4375 
Q 35.15625 39.890625 26.703125 39.890625 
Q 22.75 39.890625 18.8125 39.015625 
Q 14.890625 38.140625 10.796875 36.28125 
z
" id="DejaVuSans-35"/>
      </defs>
      <g transform="translate(277.469925 644.598437)scale(0.1 -0.1)">
       <use xlink:href="#DejaVuSans-30"/>
       <use x="63.623047" xlink:href="#DejaVuSans-2e"/>
       <use x="95.410156" xlink:href="#DejaVuSans-35"/>
      </g>
     </g>
    </g>
    <g id="xtick_15">
     <g id="line2d_53">
      <path clip-path="url(#p8c9d22d564)" d="M 346.909091 630 
L 346.909091 382.909091 
" style="fill:none;stroke:#b0b0b0;stroke-linecap:square;stroke-width:0.8;"/>
     </g>
     <g id="line2d_54">
      <g>
       <use style="stroke:#000000;stroke-width:0.8;" x="346.909091" xlink:href="#m374bcb2d3c" y="630"/>
      </g>
     </g>
     <g id="text_32">
      <!-- 0.6 -->
      <g transform="translate(338.957528 644.598437)scale(0.1 -0.1)">
       <use xlink:href="#DejaVuSans-30"/>
       <use x="63.623047" xlink:href="#DejaVuSans-2e"/>
       <use x="95.410156" xlink:href="#DejaVuSans-36"/>
      </g>
     </g>
    </g>
    <g id="xtick_16">
     <g id="line2d_55">
      <path clip-path="url(#p8c9d22d564)" d="M 408.396694 630 
L 408.396694 382.909091 
" style="fill:none;stroke:#b0b0b0;stroke-linecap:square;stroke-width:0.8;"/>
     </g>
     <g id="line2d_56">
      <g>
       <use style="stroke:#000000;stroke-width:0.8;" x="408.396694" xlink:href="#m374bcb2d3c" y="630"/>
      </g>
     </g>
     <g id="text_33">
      <!-- 0.7 -->
      <defs>
       <path d="M 8.203125 72.90625 
L 55.078125 72.90625 
L 55.078125 68.703125 
L 28.609375 0 
L 18.3125 0 
L 43.21875 64.59375 
L 8.203125 64.59375 
z
" id="DejaVuSans-37"/>
      </defs>
      <g transform="translate(400.445132 644.598437)scale(0.1 -0.1)">
       <use xlink:href="#DejaVuSans-30"/>
       <use x="63.623047" xlink:href="#DejaVuSans-2e"/>
       <use x="95.410156" xlink:href="#DejaVuSans-37"/>
      </g>
     </g>
    </g>
    <g id="xtick_17">
     <g id="line2d_57">
      <path clip-path="url(#p8c9d22d564)" d="M 469.884298 630 
L 469.884298 382.909091 
" style="fill:none;stroke:#b0b0b0;stroke-linecap:square;stroke-width:0.8;"/>
     </g>
     <g id="line2d_58">
      <g>
       <use style="stroke:#000000;stroke-width:0.8;" x="469.884298" xlink:href="#m374bcb2d3c" y="630"/>
      </g>
     </g>
     <g id="text_34">
      <!-- 0.8 -->
      <g transform="translate(461.932735 644.598437)scale(0.1 -0.1)">
       <use xlink:href="#DejaVuSans-30"/>
       <use x="63.623047" xlink:href="#DejaVuSans-2e"/>
       <use x="95.410156" xlink:href="#DejaVuSans-38"/>
      </g>
     </g>
    </g>
    <g id="xtick_18">
     <g id="line2d_59">
      <path clip-path="url(#p8c9d22d564)" d="M 531.371901 630 
L 531.371901 382.909091 
" style="fill:none;stroke:#b0b0b0;stroke-linecap:square;stroke-width:0.8;"/>
     </g>
     <g id="line2d_60">
      <g>
       <use style="stroke:#000000;stroke-width:0.8;" x="531.371901" xlink:href="#m374bcb2d3c" y="630"/>
      </g>
     </g>
     <g id="text_35">
      <!-- 0.9 -->
      <defs>
       <path d="M 10.984375 1.515625 
L 10.984375 10.5 
Q 14.703125 8.734375 18.5 7.8125 
Q 22.3125 6.890625 25.984375 6.890625 
Q 35.75 6.890625 40.890625 13.453125 
Q 46.046875 20.015625 46.78125 33.40625 
Q 43.953125 29.203125 39.59375 26.953125 
Q 35.25 24.703125 29.984375 24.703125 
Q 19.046875 24.703125 12.671875 31.3125 
Q 6.296875 37.9375 6.296875 49.421875 
Q 6.296875 60.640625 12.9375 67.421875 
Q 19.578125 74.21875 30.609375 74.21875 
Q 43.265625 74.21875 49.921875 64.515625 
Q 56.59375 54.828125 56.59375 36.375 
Q 56.59375 19.140625 48.40625 8.859375 
Q 40.234375 -1.421875 26.421875 -1.421875 
Q 22.703125 -1.421875 18.890625 -0.6875 
Q 15.09375 0.046875 10.984375 1.515625 
z
M 30.609375 32.421875 
Q 37.25 32.421875 41.125 36.953125 
Q 45.015625 41.5 45.015625 49.421875 
Q 45.015625 57.28125 41.125 61.84375 
Q 37.25 66.40625 30.609375 66.40625 
Q 23.96875 66.40625 20.09375 61.84375 
Q 16.21875 57.28125 16.21875 49.421875 
Q 16.21875 41.5 20.09375 36.953125 
Q 23.96875 32.421875 30.609375 32.421875 
z
" id="DejaVuSans-39"/>
      </defs>
      <g transform="translate(523.420338 644.598437)scale(0.1 -0.1)">
       <use xlink:href="#DejaVuSans-30"/>
       <use x="63.623047" xlink:href="#DejaVuSans-2e"/>
       <use x="95.410156" xlink:href="#DejaVuSans-39"/>
      </g>
     </g>
    </g>
    <g id="text_36">
     <!-- $\zeta$ -->
     <defs>
      <path d="M 30.71875 6.203125 
Q 37.15625 6.15625 40.28125 2.484375 
Q 43.65625 -1.375 42.53125 -7.234375 
Q 41.40625 -12.84375 37.0625 -16.75 
Q 32.328125 -21 24.359375 -21 
Q 25.09375 -17.328125 25.78125 -13.625 
Q 29.109375 -13.875 31.59375 -11.71875 
Q 33.5 -10.015625 33.84375 -8.203125 
Q 34.328125 -5.609375 33.203125 -3.46875 
Q 32.03125 -1.421875 29.25 -1.421875 
Q -0.34375 -1.421875 4.9375 26.078125 
Q 9.625 50.09375 40.765625 66.9375 
L 14.796875 66.9375 
L 16.546875 75.984375 
L 59.03125 75.984375 
L 57.28125 66.9375 
Q 18.453125 49.171875 13.96875 26.078125 
Q 10.109375 6.203125 30.71875 6.203125 
z
" id="DejaVuSans-Oblique-3b6"/>
     </defs>
     <g transform="translate(344.159091 658.278125)scale(0.1 -0.1)">
      <use transform="translate(0 0.015625)" xlink:href="#DejaVuSans-Oblique-3b6"/>
     </g>
    </g>
   </g>
   <g id="matplotlib.axis_6">
    <g id="ytick_12">
     <g id="line2d_61">
      <path clip-path="url(#p8c9d22d564)" d="M 144 630 
L 549.818182 630 
" style="fill:none;stroke:#b0b0b0;stroke-linecap:square;stroke-width:0.8;"/>
     </g>
     <g id="line2d_62">
      <g>
       <use style="stroke:#000000;stroke-width:0.8;" x="144" xlink:href="#m5d034846d8" y="630"/>
      </g>
     </g>
     <g id="text_37">
      <!-- 0 -->
      <g transform="translate(130.6375 633.799219)scale(0.1 -0.1)">
       <use xlink:href="#DejaVuSans-30"/>
      </g>
     </g>
    </g>
    <g id="ytick_13">
     <g id="line2d_63">
      <path clip-path="url(#p8c9d22d564)" d="M 144 599.347129 
L 549.818182 599.347129 
" style="fill:none;stroke:#b0b0b0;stroke-linecap:square;stroke-width:0.8;"/>
     </g>
     <g id="line2d_64">
      <g>
       <use style="stroke:#000000;stroke-width:0.8;" x="144" xlink:href="#m5d034846d8" y="599.347129"/>
      </g>
     </g>
     <g id="text_38">
      <!-- 5 -->
      <g transform="translate(130.6375 603.146348)scale(0.1 -0.1)">
       <use xlink:href="#DejaVuSans-35"/>
      </g>
     </g>
    </g>
    <g id="ytick_14">
     <g id="line2d_65">
      <path clip-path="url(#p8c9d22d564)" d="M 144 568.694259 
L 549.818182 568.694259 
" style="fill:none;stroke:#b0b0b0;stroke-linecap:square;stroke-width:0.8;"/>
     </g>
     <g id="line2d_66">
      <g>
       <use style="stroke:#000000;stroke-width:0.8;" x="144" xlink:href="#m5d034846d8" y="568.694259"/>
      </g>
     </g>
     <g id="text_39">
      <!-- 10 -->
      <g transform="translate(124.275 572.493477)scale(0.1 -0.1)">
       <use xlink:href="#DejaVuSans-31"/>
       <use x="63.623047" xlink:href="#DejaVuSans-30"/>
      </g>
     </g>
    </g>
    <g id="ytick_15">
     <g id="line2d_67">
      <path clip-path="url(#p8c9d22d564)" d="M 144 538.041388 
L 549.818182 538.041388 
" style="fill:none;stroke:#b0b0b0;stroke-linecap:square;stroke-width:0.8;"/>
     </g>
     <g id="line2d_68">
      <g>
       <use style="stroke:#000000;stroke-width:0.8;" x="144" xlink:href="#m5d034846d8" y="538.041388"/>
      </g>
     </g>
     <g id="text_40">
      <!-- 15 -->
      <g transform="translate(124.275 541.840607)scale(0.1 -0.1)">
       <use xlink:href="#DejaVuSans-31"/>
       <use x="63.623047" xlink:href="#DejaVuSans-35"/>
      </g>
     </g>
    </g>
    <g id="ytick_16">
     <g id="line2d_69">
      <path clip-path="url(#p8c9d22d564)" d="M 144 507.388517 
L 549.818182 507.388517 
" style="fill:none;stroke:#b0b0b0;stroke-linecap:square;stroke-width:0.8;"/>
     </g>
     <g id="line2d_70">
      <g>
       <use style="stroke:#000000;stroke-width:0.8;" x="144" xlink:href="#m5d034846d8" y="507.388517"/>
      </g>
     </g>
     <g id="text_41">
      <!-- 20 -->
      <g transform="translate(124.275 511.187736)scale(0.1 -0.1)">
       <use xlink:href="#DejaVuSans-32"/>
       <use x="63.623047" xlink:href="#DejaVuSans-30"/>
      </g>
     </g>
    </g>
    <g id="ytick_17">
     <g id="line2d_71">
      <path clip-path="url(#p8c9d22d564)" d="M 144 476.735647 
L 549.818182 476.735647 
" style="fill:none;stroke:#b0b0b0;stroke-linecap:square;stroke-width:0.8;"/>
     </g>
     <g id="line2d_72">
      <g>
       <use style="stroke:#000000;stroke-width:0.8;" x="144" xlink:href="#m5d034846d8" y="476.735647"/>
      </g>
     </g>
     <g id="text_42">
      <!-- 25 -->
      <g transform="translate(124.275 480.534865)scale(0.1 -0.1)">
       <use xlink:href="#DejaVuSans-32"/>
       <use x="63.623047" xlink:href="#DejaVuSans-35"/>
      </g>
     </g>
    </g>
    <g id="ytick_18">
     <g id="line2d_73">
      <path clip-path="url(#p8c9d22d564)" d="M 144 446.082776 
L 549.818182 446.082776 
" style="fill:none;stroke:#b0b0b0;stroke-linecap:square;stroke-width:0.8;"/>
     </g>
     <g id="line2d_74">
      <g>
       <use style="stroke:#000000;stroke-width:0.8;" x="144" xlink:href="#m5d034846d8" y="446.082776"/>
      </g>
     </g>
     <g id="text_43">
      <!-- 30 -->
      <g transform="translate(124.275 449.881995)scale(0.1 -0.1)">
       <use xlink:href="#DejaVuSans-33"/>
       <use x="63.623047" xlink:href="#DejaVuSans-30"/>
      </g>
     </g>
    </g>
    <g id="ytick_19">
     <g id="line2d_75">
      <path clip-path="url(#p8c9d22d564)" d="M 144 415.429905 
L 549.818182 415.429905 
" style="fill:none;stroke:#b0b0b0;stroke-linecap:square;stroke-width:0.8;"/>
     </g>
     <g id="line2d_76">
      <g>
       <use style="stroke:#000000;stroke-width:0.8;" x="144" xlink:href="#m5d034846d8" y="415.429905"/>
      </g>
     </g>
     <g id="text_44">
      <!-- 35 -->
      <g transform="translate(124.275 419.229124)scale(0.1 -0.1)">
       <use xlink:href="#DejaVuSans-33"/>
       <use x="63.623047" xlink:href="#DejaVuSans-35"/>
      </g>
     </g>
    </g>
    <g id="ytick_20">
     <g id="line2d_77">
      <path clip-path="url(#p8c9d22d564)" d="M 144 384.777035 
L 549.818182 384.777035 
" style="fill:none;stroke:#b0b0b0;stroke-linecap:square;stroke-width:0.8;"/>
     </g>
     <g id="line2d_78">
      <g>
       <use style="stroke:#000000;stroke-width:0.8;" x="144" xlink:href="#m5d034846d8" y="384.777035"/>
      </g>
     </g>
     <g id="text_45">
      <!-- 40 -->
      <g transform="translate(124.275 388.576253)scale(0.1 -0.1)">
       <use xlink:href="#DejaVuSans-34"/>
       <use x="63.623047" xlink:href="#DejaVuSans-30"/>
      </g>
     </g>
    </g>
    <g id="text_46">
     <!-- Welfare gains (%) -->
     <g transform="translate(118.195312 551.045952)rotate(-90)scale(0.1 -0.1)">
      <use xlink:href="#DejaVuSans-57"/>
      <use x="98.798828" xlink:href="#DejaVuSans-65"/>
      <use x="160.322266" xlink:href="#DejaVuSans-6c"/>
      <use x="188.105469" xlink:href="#DejaVuSans-66"/>
      <use x="223.310547" xlink:href="#DejaVuSans-61"/>
      <use x="284.589844" xlink:href="#DejaVuSans-72"/>
      <use x="325.671875" xlink:href="#DejaVuSans-65"/>
      <use x="387.195312" xlink:href="#DejaVuSans-20"/>
      <use x="418.982422" xlink:href="#DejaVuSans-67"/>
      <use x="482.458984" xlink:href="#DejaVuSans-61"/>
      <use x="543.738281" xlink:href="#DejaVuSans-69"/>
      <use x="571.521484" xlink:href="#DejaVuSans-6e"/>
      <use x="634.900391" xlink:href="#DejaVuSans-73"/>
      <use x="687" xlink:href="#DejaVuSans-20"/>
      <use x="718.787109" xlink:href="#DejaVuSans-28"/>
      <use x="757.800781" xlink:href="#DejaVuSans-25"/>
      <use x="852.820312" xlink:href="#DejaVuSans-29"/>
     </g>
    </g>
   </g>
   <g id="line2d_79">
    <path clip-path="url(#p8c9d22d564)" d="M 162.446281 394.526934 
L 166.172802 416.022021 
L 169.899324 434.747731 
L 173.625845 451.150734 
L 177.352367 465.592057 
L 181.078888 478.366042 
L 184.805409 489.714557 
L 188.531931 499.837792 
L 192.258452 508.90256 
L 195.984974 517.048718 
L 199.711495 524.394196 
L 203.438017 531.03897 
L 207.164538 537.068213 
L 210.891059 542.554824 
L 214.617581 547.561468 
L 218.344102 552.142229 
L 222.070624 556.343969 
L 225.797145 560.207431 
L 229.523666 563.768163 
L 233.250188 567.05728 
L 236.976709 570.102096 
L 240.703231 572.92666 
L 244.429752 575.552204 
L 248.156273 577.99752 
L 251.882795 580.279285 
L 255.609316 582.41233 
L 259.335838 584.409878 
L 263.062359 586.283743 
L 266.788881 588.044501 
L 270.515402 589.701638 
L 274.241923 591.263685 
L 277.968445 592.738318 
L 281.694966 594.132467 
L 285.421488 595.452392 
L 289.148009 596.70376 
L 292.87453 597.89171 
L 296.601052 599.020907 
L 300.327573 600.095597 
L 304.054095 601.119646 
L 307.780616 602.09658 
L 311.507137 603.029622 
L 315.233659 603.921718 
L 318.96018 604.77557 
L 322.686702 605.593654 
L 326.413223 606.378244 
L 330.139745 607.131433 
L 333.866266 607.855147 
L 337.592787 608.55116 
L 341.319309 609.221114 
L 345.04583 609.866521 
L 348.772352 610.488783 
L 352.498873 611.089199 
L 356.225394 611.668972 
L 359.951916 612.229218 
L 363.678437 612.770976 
L 367.404959 613.295212 
L 371.13148 613.802826 
L 374.858002 614.294656 
L 378.584523 614.771485 
L 382.311044 615.234044 
L 386.037566 615.683017 
L 389.764087 616.119044 
L 393.490609 616.542726 
L 397.21713 616.954625 
L 400.943651 617.355271 
L 404.670173 617.745158 
L 408.396694 618.124757 
L 412.123216 618.494506 
L 415.849737 618.854822 
L 419.576258 619.206096 
L 423.30278 619.548699 
L 427.029301 619.882982 
L 430.755823 620.209277 
L 434.482344 620.527898 
L 438.208866 620.839145 
L 441.935387 621.143301 
L 445.661908 621.440638 
L 449.38843 621.731413 
L 453.114951 622.015871 
L 456.841473 622.29425 
L 460.567994 622.566772 
L 464.294515 622.833656 
L 468.021037 623.095108 
L 471.747558 623.351328 
L 475.47408 623.60251 
L 479.200601 623.84884 
L 482.927122 624.0905 
L 486.653644 624.327665 
L 490.380165 624.560509 
L 494.106687 624.789199 
L 497.833208 625.013901 
L 501.55973 625.234779 
L 505.286251 625.451996 
L 509.012772 625.665713 
L 512.739294 625.876093 
L 516.465815 626.0833 
L 520.192337 626.287501 
L 523.918858 626.488865 
L 527.645379 626.687569 
L 531.371901 626.883795 
" style="fill:none;stroke:#1f77b4;stroke-linecap:square;stroke-width:1.5;"/>
   </g>
   <g id="patch_13">
    <path d="M 144 630 
L 144 382.909091 
" style="fill:none;stroke:#000000;stroke-linecap:square;stroke-linejoin:miter;stroke-width:0.8;"/>
   </g>
   <g id="patch_14">
    <path d="M 549.818182 630 
L 549.818182 382.909091 
" style="fill:none;stroke:#000000;stroke-linecap:square;stroke-linejoin:miter;stroke-width:0.8;"/>
   </g>
   <g id="patch_15">
    <path d="M 144 630 
L 549.818182 630 
" style="fill:none;stroke:#000000;stroke-linecap:square;stroke-linejoin:miter;stroke-width:0.8;"/>
   </g>
   <g id="patch_16">
    <path d="M 144 382.909091 
L 549.818182 382.909091 
" style="fill:none;stroke:#000000;stroke-linecap:square;stroke-linejoin:miter;stroke-width:0.8;"/>
   </g>
   <g id="text_47">
    <!-- CES-DS, Endgenous Investment -->
    <defs>
     <path d="M 45.40625 46.390625 
L 45.40625 75.984375 
L 54.390625 75.984375 
L 54.390625 0 
L 45.40625 0 
L 45.40625 8.203125 
Q 42.578125 3.328125 38.25 0.953125 
Q 33.9375 -1.421875 27.875 -1.421875 
Q 17.96875 -1.421875 11.734375 6.484375 
Q 5.515625 14.40625 5.515625 27.296875 
Q 5.515625 40.1875 11.734375 48.09375 
Q 17.96875 56 27.875 56 
Q 33.9375 56 38.25 53.625 
Q 42.578125 51.265625 45.40625 46.390625 
z
M 14.796875 27.296875 
Q 14.796875 17.390625 18.875 11.75 
Q 22.953125 6.109375 30.078125 6.109375 
Q 37.203125 6.109375 41.296875 11.75 
Q 45.40625 17.390625 45.40625 27.296875 
Q 45.40625 37.203125 41.296875 42.84375 
Q 37.203125 48.484375 30.078125 48.484375 
Q 22.953125 48.484375 18.875 42.84375 
Q 14.796875 37.203125 14.796875 27.296875 
z
" id="DejaVuSans-64"/>
     <path d="M 8.5 21.578125 
L 8.5 54.6875 
L 17.484375 54.6875 
L 17.484375 21.921875 
Q 17.484375 14.15625 20.5 10.265625 
Q 23.53125 6.390625 29.59375 6.390625 
Q 36.859375 6.390625 41.078125 11.03125 
Q 45.3125 15.671875 45.3125 23.6875 
L 45.3125 54.6875 
L 54.296875 54.6875 
L 54.296875 0 
L 45.3125 0 
L 45.3125 8.40625 
Q 42.046875 3.421875 37.71875 1 
Q 33.40625 -1.421875 27.6875 -1.421875 
Q 18.265625 -1.421875 13.375 4.4375 
Q 8.5 10.296875 8.5 21.578125 
z
M 31.109375 56 
z
" id="DejaVuSans-75"/>
     <path d="M 9.8125 72.90625 
L 19.671875 72.90625 
L 19.671875 0 
L 9.8125 0 
z
" id="DejaVuSans-49"/>
     <path d="M 2.984375 54.6875 
L 12.5 54.6875 
L 29.59375 8.796875 
L 46.6875 54.6875 
L 56.203125 54.6875 
L 35.6875 0 
L 23.484375 0 
z
" id="DejaVuSans-76"/>
     <path d="M 52 44.1875 
Q 55.375 50.25 60.0625 53.125 
Q 64.75 56 71.09375 56 
Q 79.640625 56 84.28125 50.015625 
Q 88.921875 44.046875 88.921875 33.015625 
L 88.921875 0 
L 79.890625 0 
L 79.890625 32.71875 
Q 79.890625 40.578125 77.09375 44.375 
Q 74.3125 48.1875 68.609375 48.1875 
Q 61.625 48.1875 57.5625 43.546875 
Q 53.515625 38.921875 53.515625 30.90625 
L 53.515625 0 
L 44.484375 0 
L 44.484375 32.71875 
Q 44.484375 40.625 41.703125 44.40625 
Q 38.921875 48.1875 33.109375 48.1875 
Q 26.21875 48.1875 22.15625 43.53125 
Q 18.109375 38.875 18.109375 30.90625 
L 18.109375 0 
L 9.078125 0 
L 9.078125 54.6875 
L 18.109375 54.6875 
L 18.109375 46.1875 
Q 21.1875 51.21875 25.484375 53.609375 
Q 29.78125 56 35.6875 56 
Q 41.65625 56 45.828125 52.96875 
Q 50 49.953125 52 44.1875 
z
" id="DejaVuSans-6d"/>
    </defs>
    <g transform="translate(251.514716 376.909091)scale(0.12 -0.12)">
     <use xlink:href="#DejaVuSans-43"/>
     <use x="69.824219" xlink:href="#DejaVuSans-45"/>
     <use x="133.007812" xlink:href="#DejaVuSans-53"/>
     <use x="196.484375" xlink:href="#DejaVuSans-2d"/>
     <use x="232.568359" xlink:href="#DejaVuSans-44"/>
     <use x="309.570312" xlink:href="#DejaVuSans-53"/>
     <use x="373.046875" xlink:href="#DejaVuSans-2c"/>
     <use x="404.833984" xlink:href="#DejaVuSans-20"/>
     <use x="436.621094" xlink:href="#DejaVuSans-45"/>
     <use x="499.804688" xlink:href="#DejaVuSans-6e"/>
     <use x="563.183594" xlink:href="#DejaVuSans-64"/>
     <use x="626.660156" xlink:href="#DejaVuSans-67"/>
     <use x="690.136719" xlink:href="#DejaVuSans-65"/>
     <use x="751.660156" xlink:href="#DejaVuSans-6e"/>
     <use x="815.039062" xlink:href="#DejaVuSans-6f"/>
     <use x="876.220703" xlink:href="#DejaVuSans-75"/>
     <use x="939.599609" xlink:href="#DejaVuSans-73"/>
     <use x="991.699219" xlink:href="#DejaVuSans-20"/>
     <use x="1023.486328" xlink:href="#DejaVuSans-49"/>
     <use x="1052.978516" xlink:href="#DejaVuSans-6e"/>
     <use x="1116.357422" xlink:href="#DejaVuSans-76"/>
     <use x="1175.537109" xlink:href="#DejaVuSans-65"/>
     <use x="1237.060547" xlink:href="#DejaVuSans-73"/>
     <use x="1289.160156" xlink:href="#DejaVuSans-74"/>
     <use x="1328.369141" xlink:href="#DejaVuSans-6d"/>
     <use x="1425.78125" xlink:href="#DejaVuSans-65"/>
     <use x="1487.304688" xlink:href="#DejaVuSans-6e"/>
     <use x="1550.683594" xlink:href="#DejaVuSans-74"/>
    </g>
   </g>
  </g>
  <g id="axes_4">
   <g id="patch_17">
    <path d="M 630.981818 630 
L 1036.8 630 
L 1036.8 382.909091 
L 630.981818 382.909091 
z
" style="fill:#ffffff;"/>
   </g>
   <g id="matplotlib.axis_7">
    <g id="xtick_19">
     <g id="line2d_80">
      <path clip-path="url(#pb4151421db)" d="M 690.419835 630 
L 690.419835 382.909091 
" style="fill:none;stroke:#b0b0b0;stroke-linecap:square;stroke-width:0.8;"/>
     </g>
     <g id="line2d_81">
      <g>
       <use style="stroke:#000000;stroke-width:0.8;" x="690.419835" xlink:href="#m374bcb2d3c" y="630"/>
      </g>
     </g>
     <g id="text_48">
      <!-- 1.2 -->
      <g transform="translate(682.468272 644.598437)scale(0.1 -0.1)">
       <use xlink:href="#DejaVuSans-31"/>
       <use x="63.623047" xlink:href="#DejaVuSans-2e"/>
       <use x="95.410156" xlink:href="#DejaVuSans-32"/>
      </g>
     </g>
    </g>
    <g id="xtick_20">
     <g id="line2d_82">
      <path clip-path="url(#pb4151421db)" d="M 772.403306 630 
L 772.403306 382.909091 
" style="fill:none;stroke:#b0b0b0;stroke-linecap:square;stroke-width:0.8;"/>
     </g>
     <g id="line2d_83">
      <g>
       <use style="stroke:#000000;stroke-width:0.8;" x="772.403306" xlink:href="#m374bcb2d3c" y="630"/>
      </g>
     </g>
     <g id="text_49">
      <!-- 1.4 -->
      <g transform="translate(764.451743 644.598437)scale(0.1 -0.1)">
       <use xlink:href="#DejaVuSans-31"/>
       <use x="63.623047" xlink:href="#DejaVuSans-2e"/>
       <use x="95.410156" xlink:href="#DejaVuSans-34"/>
      </g>
     </g>
    </g>
    <g id="xtick_21">
     <g id="line2d_84">
      <path clip-path="url(#pb4151421db)" d="M 854.386777 630 
L 854.386777 382.909091 
" style="fill:none;stroke:#b0b0b0;stroke-linecap:square;stroke-width:0.8;"/>
     </g>
     <g id="line2d_85">
      <g>
       <use style="stroke:#000000;stroke-width:0.8;" x="854.386777" xlink:href="#m374bcb2d3c" y="630"/>
      </g>
     </g>
     <g id="text_50">
      <!-- 1.6 -->
      <g transform="translate(846.435214 644.598437)scale(0.1 -0.1)">
       <use xlink:href="#DejaVuSans-31"/>
       <use x="63.623047" xlink:href="#DejaVuSans-2e"/>
       <use x="95.410156" xlink:href="#DejaVuSans-36"/>
      </g>
     </g>
    </g>
    <g id="xtick_22">
     <g id="line2d_86">
      <path clip-path="url(#pb4151421db)" d="M 936.370248 630 
L 936.370248 382.909091 
" style="fill:none;stroke:#b0b0b0;stroke-linecap:square;stroke-width:0.8;"/>
     </g>
     <g id="line2d_87">
      <g>
       <use style="stroke:#000000;stroke-width:0.8;" x="936.370248" xlink:href="#m374bcb2d3c" y="630"/>
      </g>
     </g>
     <g id="text_51">
      <!-- 1.8 -->
      <g transform="translate(928.418685 644.598437)scale(0.1 -0.1)">
       <use xlink:href="#DejaVuSans-31"/>
       <use x="63.623047" xlink:href="#DejaVuSans-2e"/>
       <use x="95.410156" xlink:href="#DejaVuSans-38"/>
      </g>
     </g>
    </g>
    <g id="xtick_23">
     <g id="line2d_88">
      <path clip-path="url(#pb4151421db)" d="M 1018.353719 630 
L 1018.353719 382.909091 
" style="fill:none;stroke:#b0b0b0;stroke-linecap:square;stroke-width:0.8;"/>
     </g>
     <g id="line2d_89">
      <g>
       <use style="stroke:#000000;stroke-width:0.8;" x="1018.353719" xlink:href="#m374bcb2d3c" y="630"/>
      </g>
     </g>
     <g id="text_52">
      <!-- 2.0 -->
      <g transform="translate(1010.402157 644.598437)scale(0.1 -0.1)">
       <use xlink:href="#DejaVuSans-32"/>
       <use x="63.623047" xlink:href="#DejaVuSans-2e"/>
       <use x="95.410156" xlink:href="#DejaVuSans-30"/>
      </g>
     </g>
    </g>
    <g id="text_53">
     <!-- $\mu$ -->
     <g transform="translate(830.690909 658.25625)scale(0.1 -0.1)">
      <use transform="translate(0 0.3125)" xlink:href="#DejaVuSans-Oblique-3bc"/>
     </g>
    </g>
   </g>
   <g id="matplotlib.axis_8">
    <g id="ytick_21">
     <g id="line2d_90">
      <path clip-path="url(#pb4151421db)" d="M 630.981818 630 
L 1036.8 630 
" style="fill:none;stroke:#b0b0b0;stroke-linecap:square;stroke-width:0.8;"/>
     </g>
     <g id="line2d_91">
      <g>
       <use style="stroke:#000000;stroke-width:0.8;" x="630.981818" xlink:href="#m5d034846d8" y="630"/>
      </g>
     </g>
     <g id="text_54">
      <!-- 0 -->
      <g transform="translate(617.619318 633.799219)scale(0.1 -0.1)">
       <use xlink:href="#DejaVuSans-30"/>
      </g>
     </g>
    </g>
    <g id="ytick_22">
     <g id="line2d_92">
      <path clip-path="url(#pb4151421db)" d="M 630.981818 594.441748 
L 1036.8 594.441748 
" style="fill:none;stroke:#b0b0b0;stroke-linecap:square;stroke-width:0.8;"/>
     </g>
     <g id="line2d_93">
      <g>
       <use style="stroke:#000000;stroke-width:0.8;" x="630.981818" xlink:href="#m5d034846d8" y="594.441748"/>
      </g>
     </g>
     <g id="text_55">
      <!-- 2 -->
      <g transform="translate(617.619318 598.240967)scale(0.1 -0.1)">
       <use xlink:href="#DejaVuSans-32"/>
      </g>
     </g>
    </g>
    <g id="ytick_23">
     <g id="line2d_94">
      <path clip-path="url(#pb4151421db)" d="M 630.981818 558.883496 
L 1036.8 558.883496 
" style="fill:none;stroke:#b0b0b0;stroke-linecap:square;stroke-width:0.8;"/>
     </g>
     <g id="line2d_95">
      <g>
       <use style="stroke:#000000;stroke-width:0.8;" x="630.981818" xlink:href="#m5d034846d8" y="558.883496"/>
      </g>
     </g>
     <g id="text_56">
      <!-- 4 -->
      <g transform="translate(617.619318 562.682714)scale(0.1 -0.1)">
       <use xlink:href="#DejaVuSans-34"/>
      </g>
     </g>
    </g>
    <g id="ytick_24">
     <g id="line2d_96">
      <path clip-path="url(#pb4151421db)" d="M 630.981818 523.325244 
L 1036.8 523.325244 
" style="fill:none;stroke:#b0b0b0;stroke-linecap:square;stroke-width:0.8;"/>
     </g>
     <g id="line2d_97">
      <g>
       <use style="stroke:#000000;stroke-width:0.8;" x="630.981818" xlink:href="#m5d034846d8" y="523.325244"/>
      </g>
     </g>
     <g id="text_57">
      <!-- 6 -->
      <g transform="translate(617.619318 527.124462)scale(0.1 -0.1)">
       <use xlink:href="#DejaVuSans-36"/>
      </g>
     </g>
    </g>
    <g id="ytick_25">
     <g id="line2d_98">
      <path clip-path="url(#pb4151421db)" d="M 630.981818 487.766991 
L 1036.8 487.766991 
" style="fill:none;stroke:#b0b0b0;stroke-linecap:square;stroke-width:0.8;"/>
     </g>
     <g id="line2d_99">
      <g>
       <use style="stroke:#000000;stroke-width:0.8;" x="630.981818" xlink:href="#m5d034846d8" y="487.766991"/>
      </g>
     </g>
     <g id="text_58">
      <!-- 8 -->
      <g transform="translate(617.619318 491.56621)scale(0.1 -0.1)">
       <use xlink:href="#DejaVuSans-38"/>
      </g>
     </g>
    </g>
    <g id="ytick_26">
     <g id="line2d_100">
      <path clip-path="url(#pb4151421db)" d="M 630.981818 452.208739 
L 1036.8 452.208739 
" style="fill:none;stroke:#b0b0b0;stroke-linecap:square;stroke-width:0.8;"/>
     </g>
     <g id="line2d_101">
      <g>
       <use style="stroke:#000000;stroke-width:0.8;" x="630.981818" xlink:href="#m5d034846d8" y="452.208739"/>
      </g>
     </g>
     <g id="text_59">
      <!-- 10 -->
      <g transform="translate(611.256818 456.007958)scale(0.1 -0.1)">
       <use xlink:href="#DejaVuSans-31"/>
       <use x="63.623047" xlink:href="#DejaVuSans-30"/>
      </g>
     </g>
    </g>
    <g id="ytick_27">
     <g id="line2d_102">
      <path clip-path="url(#pb4151421db)" d="M 630.981818 416.650487 
L 1036.8 416.650487 
" style="fill:none;stroke:#b0b0b0;stroke-linecap:square;stroke-width:0.8;"/>
     </g>
     <g id="line2d_103">
      <g>
       <use style="stroke:#000000;stroke-width:0.8;" x="630.981818" xlink:href="#m5d034846d8" y="416.650487"/>
      </g>
     </g>
     <g id="text_60">
      <!-- 12 -->
      <g transform="translate(611.256818 420.449706)scale(0.1 -0.1)">
       <use xlink:href="#DejaVuSans-31"/>
       <use x="63.623047" xlink:href="#DejaVuSans-32"/>
      </g>
     </g>
    </g>
    <g id="text_61">
     <!-- Welfare gains (%) -->
     <g transform="translate(605.177131 551.045952)rotate(-90)scale(0.1 -0.1)">
      <use xlink:href="#DejaVuSans-57"/>
      <use x="98.798828" xlink:href="#DejaVuSans-65"/>
      <use x="160.322266" xlink:href="#DejaVuSans-6c"/>
      <use x="188.105469" xlink:href="#DejaVuSans-66"/>
      <use x="223.310547" xlink:href="#DejaVuSans-61"/>
      <use x="284.589844" xlink:href="#DejaVuSans-72"/>
      <use x="325.671875" xlink:href="#DejaVuSans-65"/>
      <use x="387.195312" xlink:href="#DejaVuSans-20"/>
      <use x="418.982422" xlink:href="#DejaVuSans-67"/>
      <use x="482.458984" xlink:href="#DejaVuSans-61"/>
      <use x="543.738281" xlink:href="#DejaVuSans-69"/>
      <use x="571.521484" xlink:href="#DejaVuSans-6e"/>
      <use x="634.900391" xlink:href="#DejaVuSans-73"/>
      <use x="687" xlink:href="#DejaVuSans-20"/>
      <use x="718.787109" xlink:href="#DejaVuSans-28"/>
      <use x="757.800781" xlink:href="#DejaVuSans-25"/>
      <use x="852.820312" xlink:href="#DejaVuSans-29"/>
     </g>
    </g>
   </g>
   <g id="line2d_104">
    <path clip-path="url(#pb4151421db)" d="M 649.428099 625.745117 
L 653.154621 624.987587 
L 656.881142 624.176364 
L 660.607663 623.313036 
L 664.334185 622.399117 
L 668.060706 621.436054 
L 671.787228 620.425229 
L 675.513749 619.367958 
L 679.24027 618.2655 
L 682.966792 617.119054 
L 686.693313 615.929765 
L 690.419835 614.698726 
L 694.146356 613.426979 
L 697.872878 612.115515 
L 701.599399 610.765284 
L 705.32592 609.377188 
L 709.052442 607.952087 
L 712.778963 606.490801 
L 716.505485 604.994112 
L 720.232006 603.462764 
L 723.958527 601.897463 
L 727.685049 600.298884 
L 731.41157 598.667669 
L 735.138092 597.004425 
L 738.864613 595.309732 
L 742.591134 593.584139 
L 746.317656 591.828169 
L 750.044177 590.042315 
L 753.770699 588.227048 
L 757.49722 586.382811 
L 761.223742 584.510024 
L 764.950263 582.609084 
L 768.676784 580.680367 
L 772.403306 578.724225 
L 776.129827 576.740992 
L 779.856349 574.730981 
L 783.58287 572.694485 
L 787.309391 570.631781 
L 791.035913 568.543126 
L 794.762434 566.42876 
L 798.488956 564.288908 
L 802.215477 562.123777 
L 805.941998 559.933559 
L 809.66852 557.718433 
L 813.395041 555.47856 
L 817.121563 553.21409 
L 820.848084 550.925158 
L 824.574606 548.611886 
L 828.301127 546.274384 
L 832.027648 543.912748 
L 835.75417 541.527065 
L 839.480691 539.117407 
L 843.207213 536.683836 
L 846.933734 534.226405 
L 850.660255 531.745154 
L 854.386777 529.240114 
L 858.113298 526.711304 
L 861.83982 524.158737 
L 865.566341 521.582413 
L 869.292863 518.982325 
L 873.019384 516.358455 
L 876.745905 513.710778 
L 880.472427 511.039261 
L 884.198948 508.34386 
L 887.92547 505.624526 
L 891.651991 502.881201 
L 895.378512 500.113817 
L 899.105034 497.322303 
L 902.831555 494.506577 
L 906.558077 491.666551 
L 910.284598 488.80213 
L 914.011119 485.913213 
L 917.737641 482.999691 
L 921.464162 480.061449 
L 925.190684 477.098365 
L 928.917205 474.110311 
L 932.643727 471.097153 
L 936.370248 468.058752 
L 940.096769 464.994961 
L 943.823291 461.905627 
L 947.549812 458.790594 
L 951.276334 455.649697 
L 955.002855 452.482768 
L 958.729376 449.289633 
L 962.455898 446.07011 
L 966.182419 442.824015 
L 969.908941 439.551158 
L 973.635462 436.251342 
L 977.361983 432.924367 
L 981.088505 429.570026 
L 984.815026 426.18811 
L 988.541548 422.778401 
L 992.268069 419.340679 
L 995.994591 415.874719 
L 999.721112 412.380289 
L 1003.447633 408.857156 
L 1007.174155 405.305078 
L 1010.900676 401.723812 
L 1014.627198 398.113107 
L 1018.353719 394.472711 
" style="fill:none;stroke:#1f77b4;stroke-linecap:square;stroke-width:1.5;"/>
   </g>
   <g id="patch_18">
    <path d="M 630.981818 630 
L 630.981818 382.909091 
" style="fill:none;stroke:#000000;stroke-linecap:square;stroke-linejoin:miter;stroke-width:0.8;"/>
   </g>
   <g id="patch_19">
    <path d="M 1036.8 630 
L 1036.8 382.909091 
" style="fill:none;stroke:#000000;stroke-linecap:square;stroke-linejoin:miter;stroke-width:0.8;"/>
   </g>
   <g id="patch_20">
    <path d="M 630.981818 630 
L 1036.8 630 
" style="fill:none;stroke:#000000;stroke-linecap:square;stroke-linejoin:miter;stroke-width:0.8;"/>
   </g>
   <g id="patch_21">
    <path d="M 630.981818 382.909091 
L 1036.8 382.909091 
" style="fill:none;stroke:#000000;stroke-linecap:square;stroke-linejoin:miter;stroke-width:0.8;"/>
   </g>
   <g id="text_62">
    <!-- CES-DS, Endgenous Investment -->
    <g transform="translate(738.496534 376.909091)scale(0.12 -0.12)">
     <use xlink:href="#DejaVuSans-43"/>
     <use x="69.824219" xlink:href="#DejaVuSans-45"/>
     <use x="133.007812" xlink:href="#DejaVuSans-53"/>
     <use x="196.484375" xlink:href="#DejaVuSans-2d"/>
     <use x="232.568359" xlink:href="#DejaVuSans-44"/>
     <use x="309.570312" xlink:href="#DejaVuSans-53"/>
     <use x="373.046875" xlink:href="#DejaVuSans-2c"/>
     <use x="404.833984" xlink:href="#DejaVuSans-20"/>
     <use x="436.621094" xlink:href="#DejaVuSans-45"/>
     <use x="499.804688" xlink:href="#DejaVuSans-6e"/>
     <use x="563.183594" xlink:href="#DejaVuSans-64"/>
     <use x="626.660156" xlink:href="#DejaVuSans-67"/>
     <use x="690.136719" xlink:href="#DejaVuSans-65"/>
     <use x="751.660156" xlink:href="#DejaVuSans-6e"/>
     <use x="815.039062" xlink:href="#DejaVuSans-6f"/>
     <use x="876.220703" xlink:href="#DejaVuSans-75"/>
     <use x="939.599609" xlink:href="#DejaVuSans-73"/>
     <use x="991.699219" xlink:href="#DejaVuSans-20"/>
     <use x="1023.486328" xlink:href="#DejaVuSans-49"/>
     <use x="1052.978516" xlink:href="#DejaVuSans-6e"/>
     <use x="1116.357422" xlink:href="#DejaVuSans-76"/>
     <use x="1175.537109" xlink:href="#DejaVuSans-65"/>
     <use x="1237.060547" xlink:href="#DejaVuSans-73"/>
     <use x="1289.160156" xlink:href="#DejaVuSans-74"/>
     <use x="1328.369141" xlink:href="#DejaVuSans-6d"/>
     <use x="1425.78125" xlink:href="#DejaVuSans-65"/>
     <use x="1487.304688" xlink:href="#DejaVuSans-6e"/>
     <use x="1550.683594" xlink:href="#DejaVuSans-74"/>
    </g>
   </g>
  </g>
 </g>
 <defs>
  <clipPath id="pa16745b4fd">
   <rect height="247.090909" width="405.818182" x="144" y="86.4"/>
  </clipPath>
  <clipPath id="p20a9fdee99">
   <rect height="247.090909" width="405.818182" x="630.981818" y="86.4"/>
  </clipPath>
  <clipPath id="p8c9d22d564">
   <rect height="247.090909" width="405.818182" x="144" y="382.909091"/>
  </clipPath>
  <clipPath id="pb4151421db">
   <rect height="247.090909" width="405.818182" x="630.981818" y="382.909091"/>
  </clipPath>
 </defs>
</svg>
